<svg xmlns="http://www.w3.org/2000/svg" id="Layer_2" viewBox="0 0 150 150"><defs><style>.cls-1{fill:none;}</style></defs><g id="Layer_1-2"><g><rect class="cls-1" width="150" height="150"></rect><g><g><path d="m65.73,85.18c-.11.19-.32.46-.57.73-.44.51-.97,1.05-1.15,1.23-.02.03-.05.05-.06.06l-.5-.5c.21-.21.63-.64,1-1.05.24-.27.47-.53.59-.72.03-.04.05-.07.07-.11l.61.36Z"></path><path d="m66.65,80.99l-.33-.11h-.35s0-.04,0-.04l-.19-2.27h0s0-.12,0-.12l.7-.05v.14s.17.16.17.16l-.13.14.16,1.98s0,.1-.02.17Z"></path><path d="m74.66,81.06s-.05,0-.08,0c-.04,0-.08,0-.13-.02l.12-.69s.05,0,.08,0c.04,0,.08,0,.13.02l-.12.69Z"></path><path d="m108.44,79.53c0,.06,0,.12,0,.18-.2,4.73-3.01,10.8-3.57,11.98-.54,1.12-1.36,2.09-2.38,2.81-5.4,3.8-11.67,5.51-21.3,5.51-3.37,0-7.16-.21-11.46-.61-11.03-1.03-20.03-3.41-26.75-7.06-1.92-1.05-3.1-3.15-3.01-5.35l.51-11.23c.05-1.01.59-1.92,1.46-2.43.86-.51,1.91-.54,2.8-.1,1.34.66,3.15,1.51,4.4,2.01.11.04.2.08.3.12l-.25.65c-.16-.06-.33-.13-.52-.2-1.26-.52-2.97-1.32-4.25-1.95-.69-.34-1.47-.32-2.14.08-.66.39-1.08,1.08-1.11,1.86l-.51,11.22c-.08,1.94.96,3.78,2.64,4.71,6.64,3.61,15.55,5.96,26.49,6.98,16.4,1.54,25.16.25,32.29-4.77.92-.65,1.67-1.53,2.15-2.54.34-.69,3.18-6.73,3.49-11.39.01-.17.02-.33.02-.48l.7.02Z"></path><polygon points="57.34 78.31 56.9 78.21 57.06 77.52 57.5 77.63 57.34 78.31"></polygon><path d="m98.81,77.93c-6.63-3.43-20.31-7.71-32.53-10.18-.98-.2-1.69-1.07-1.69-2.07l-.38-10.66c-.02-.53.21-1.03.62-1.37.41-.34.95-.46,1.47-.32l2.56.64-.17.68-2.56-.64c-.3-.07-.61,0-.85.19-.24.2-.37.49-.36.8l.38,10.68c0,.68.48,1.26,1.13,1.39,10.53,2.13,25.15,6.34,32.71,10.25l-.32.62Z"></path><path d="m109.27,67.37l-.68-.18c.06-.23.09-.39.09-.51,0-1.06-.82-2.48-1.55-3.09-.78-.65-1.67-.98-2.16-.79l-.06.02h-.06v-.37s-.12-.31-.12-.31c.9-.34,2.1.28,2.86.91.87.73,1.8,2.36,1.8,3.63,0,.19-.03.4-.11.69Z"></path><path d="m103.15,73.9c-.35,0-.75-.15-1.13-.44-.51-.38-1.03-1.05-1.08-1.7-.04-.66.16-1.67.59-3.01l.67.22c-.51,1.55-.58,2.35-.56,2.74.02.35.36.85.8,1.18.3.23.6.34.8.29.6-.13,1.84-.93,2.82-1.67l.42.56c-.35.26-2.12,1.58-3.09,1.8-.08.02-.16.03-.25.03Z"></path><path d="m103.91,64.07l-.53-.46,1.51-1.76c.09-.13.11-.28.06-.42-.08-.25-.35-.48-.72-.62l-3.9-.7c-.91-.26-1.37-.28-1.73.26l-.83,1.34-.6-.37.84-1.34c.7-1.07,1.83-.75,2.5-.56l.29.07,3.64.64c.59.21,1.02.6,1.18,1.07.12.36.06.73-.15,1.05l-.02.03-1.53,1.78Z"></path><path d="m99.35,70.66c-.16,0-.32-.02-.48-.05-1.85-.35-3.01-2.7-2.81-5.72l.7.05c-.17,2.6.77,4.7,2.24,4.98.86.17,1.81-.3,2.59-1.28.74-.91,1.3-2.2,1.56-3.63.17-.95.15-1.55-.06-1.81-.2-.24-.67-.24-1.26-.23-.44,0-.94,0-1.46-.09-.51-.1-.98-.28-1.4-.45-.57-.22-1.06-.42-1.36-.25l-.33-.62c.59-.32,1.26-.06,1.96.22.4.16.82.33,1.27.41.45.09.9.08,1.33.08.71,0,1.39-.01,1.81.48.37.44.44,1.18.22,2.39-.29,1.56-.87,2.93-1.7,3.94-.82,1.02-1.81,1.57-2.79,1.57Z"></path><path d="m97.77,61.14l-.51-.48,1.64-1.76c.09-.13.11-.26.06-.4-.09-.26-.38-.49-.8-.63l-3.88-.64c-.1-.01-.22-.04-.34-.07-.63-.17-1.13-.25-1.5-.08-.16.08-.3.19-.41.35l-1.38,2.05-.58-.4.79-1.17.58-.88c.2-.27.42-.46.7-.59.63-.28,1.34-.13,1.97.04.08.02.18.04.26.05l3.97.65c.65.21,1.12.6,1.28,1.09.12.36.06.73-.17,1.05l-.03.03-1.65,1.77Z"></path><path d="m97.73,60.43c-.02-.07-.05-.13-.08-.19-.05-.11-.12-.21-.2-.3-.44-.47-1.13-.47-1.93-.46-.44,0-.95.01-1.44-.08-.49-.08-.95-.25-1.39-.41-.49-.18-.99-.37-1.45-.36-.02,0-.04,0-.06,0-.12,0-.24.02-.36.06-.1.03-.2.07-.29.13-.12.07-.23.17-.34.29-.01.02-.03.03-.04.05-.01.02-.03.03-.04.05-.27.36-.47.9-.63,1.69-.07.38-.12.76-.14,1.14h0s0,.05,0,.08c-.03.46-.03.91,0,1.34.19,2.35,1.34,4.07,3.02,4.37.17.03.34.05.51.05,1.13,0,2.26-.64,3.17-1.79.24-.3.46-.63.66-.98.01-.02.03-.05.04-.08.45-.81.77-1.71.95-2.68.01-.07.02-.14.04-.2.01-.07.02-.14.04-.22,0-.04.01-.08.02-.12,0-.06.01-.11.02-.17,0-.03,0-.06,0-.09,0-.04,0-.07,0-.11h0c.01-.12.01-.23,0-.34h0c0-.25-.04-.47-.1-.65Zm-.61,1.06v.03c0,.06-.01.12-.02.18,0,.05-.01.09-.01.11-.02.13-.05.26-.07.41-.17.91-.48,1.76-.91,2.53-.95,1.69-2.34,2.61-3.62,2.38-1.62-.28-2.63-2.33-2.45-4.97.02-.37.07-.75.14-1.12.14-.72.32-1.21.55-1.47.15-.17.31-.24.53-.24.28,0,.65.12,1.19.32.45.17.96.35,1.51.45.56.1,1.1.09,1.57.09.63,0,1.17-.01,1.4.24.16.18.22.54.18,1.07Z"></path><polygon points="90.78 59.05 90.27 58.57 90.9 57.91 91.39 58.4 90.78 59.05"></polygon><path d="m83.86,57.15l-.29-.19h-.36s0-.1,0-.1l.06-.1,1.18-1.81c.2-.29.43-.48.72-.6.61-.27,1.3-.13,1.95.03.12.04.19.06.27.06l3.98.64c.96.32,1.5,1.06,1.27,1.78l-.67-.21c.1-.32-.24-.71-.8-.9l-3.88-.62c-.11-.01-.23-.04-.38-.09-.51-.13-1.06-.24-1.47-.06-.16.07-.29.18-.41.35l-1.17,1.8Z"></path><path d="m85.87,65.63c-.16,0-.33-.01-.49-.04-1.95-.35-3.2-2.63-3.04-5.54.01-.39.06-.84.17-1.39.17-.88.4-1.46.73-1.81.67-.76,1.59-.42,2.48-.09.44.16.9.33,1.39.41.49.09.97.08,1.44.08.79,0,1.47-.02,1.91.45.3.31.42.79.38,1.46,0,.07,0,.15-.02.25l-.69-.12c0-.05,0-.1,0-.14.03-.49-.04-.81-.19-.96-.23-.24-.77-.24-1.39-.23-.47,0-1.01.01-1.56-.09-.55-.1-1.06-.28-1.51-.45-.89-.33-1.38-.48-1.72-.1-.24.26-.42.74-.56,1.47-.09.51-.14.92-.15,1.29-.14,2.56.87,4.54,2.46,4.82,1.39.23,2.95-.93,3.87-2.91l.64.3c-.98,2.08-2.56,3.35-4.14,3.35Z"></path><rect x="80.57" y="83.51" width=".31" height=".7" transform="translate(-34.79 98.18) rotate(-53.16)"></rect><path d="m73.46,83.4l-.62-.33.1-.19,1.05-2.06c.07-.13.15-.25.26-.37.1-.13.25-.25.41-.33.56-.34,1.25-.29,1.96-.2.09.01.19.02.29.02l4.12.18c.84.16,1.42.64,1.53,1.25l-.69.12c-.05-.3-.42-.56-.94-.67l-4.03-.17c-.11,0-.23-.01-.36-.03-.59-.08-1.15-.13-1.52.11l-.04.02c-.06.03-.13.08-.17.14-.08.1-.14.17-.18.25l-1.14,2.25Z"></path><path d="m80.99,84.4h0c0-.1-.01-.19-.02-.28-.01-.11-.03-.21-.05-.31-.06-.27-.14-.5-.26-.67-.06-.08-.12-.15-.18-.21-.51-.48-1.26-.38-2.06-.28-.45.06-.97.13-1.48.1-.51-.02-1-.14-1.47-.25-.51-.12-1.01-.24-1.45-.2-.01,0-.02,0-.04,0h0c-.17.02-.32.06-.47.13-.07.03-.14.08-.21.13-.04.03-.08.06-.12.1-.1.09-.2.21-.28.35-.01.02-.02.04-.04.07-.22.4-.35.98-.4,1.75-.04.46-.04.91-.01,1.35h0c.03.48.09.94.19,1.37.24,1.11.69,2.08,1.31,2.78.64.73,1.43,1.14,2.28,1.18.05,0,.11,0,.16,0,1.78,0,3.36-1.57,4.13-3.88.2-.62.35-1.29.43-2,.01-.12.02-.23.03-.35.02-.33.03-.63.02-.9Zm-4.61,6.42s-.08,0-.12,0c-.66-.04-1.28-.36-1.79-.95-.97-1.1-1.46-2.97-1.31-5,.07-.95.26-1.54.56-1.76.13-.09.3-.13.49-.13.3,0,.68.09,1.11.19.47.11,1.02.24,1.59.27.58.03,1.13-.04,1.61-.1.68-.09,1.22-.16,1.48.09.17.15.26.47.29.93,0,.09,0,.2,0,.31,0,.17,0,.36-.02.57-.01.12-.02.25-.04.37-.33,2.94-2,5.21-3.86,5.21Z"></path><path d="m64.84,81.29l-.57-.42,1.45-1.99c.03-.06.05-.13.06-.18v-.02s0-.08,0-.12v-.02c-.09-.28-.45-.53-.94-.63-.34-.03-4.14-.36-4.77-.42-.84-.11-1.14.04-1.53.75l-.04.08-1.1,2.17-.63-.32,1.15-2.27c.53-.97,1.12-1.26,2.24-1.11.62.07,4.72.42,4.76.42h.04c.79.16,1.37.61,1.51,1.18v.06s.02.06.02.09h0s0,.31,0,.31l-.02.02c-.02.13-.07.24-.13.36l-.03.04-1.47,2.01Z"></path><path d="m57.51,85.15c-.55-.61-.52-2.34-.44-3.18,0-.08.01-.14.02-.2l-.7-.08s0,.07-.01.11c0,.04,0,.08-.01.13-.02.21-.05.54-.05.92,0,.3,0,.64.04.97.06.59.2,1.19.47,1.61-.69,1.37-1.03,2.57-1.15,3.61l.66.53c.05-1.1.38-2.44,1.21-4.01l.12-.22-.17-.18Zm6.95.5c.43-1.47.45-3.81.45-4.45v-.12h-.22s-.13,0-.13,0h-.35v.13c.01,1.62-.18,4.3-.73,4.94-.18.2-.25.45-.21.7.09.53.17,1.49.21,2.2.05.75-.04,1.46-.25,2.13-.27.84-.67,1.53-1.24,2.14.59-4.08-.83-6.14-1.37-6.93-.09-.14-.25-.23-.42-.24-.18-.01-.33.06-.45.19l-.05.06c-.51.58-1.25,1.42-1.83,3.34.17-.03.34-.05.49-.04.08,0,.16.02.24.06.49-1.53,1.09-2.27,1.55-2.8.85,1.29,1.68,3.23,1.07,6.73-.04.23.07.45.27.57.08.05.17.07.26.07.13,0,.26-.05.36-.14.86-.78,1.42-1.67,1.78-2.79.24-.75.33-1.55.28-2.39-.04-.57-.09-1.31-.16-1.86-.02-.15-.04-.3-.06-.41,0-.05.03-.09.05-.12.19-.22.34-.56.46-.96Z"></path><path d="m64.87,81.03l-.18.05-.1.03-.38.1h-.01c-.15-.54-.94-.59-2.34-.63-.32,0-.66-.02-1.02-.04-.58-.03-1.11-.16-1.59-.27-.71-.17-1.28-.3-1.61-.06-.3.22-.49.82-.56,1.76h0l-.7-.05s0-.09.01-.13c0-.04,0-.07.01-.11.07-.65.19-1.15.39-1.51.03-.05.06-.11.09-.15.1-.15.22-.28.35-.38.13-.09.26-.16.41-.2.1-.03.21-.05.32-.06.45-.04.95.08,1.46.2.47.11.95.22,1.47.25.35.02.68.03,1,.04,1.19.03,2.18.05,2.7.59.14.14.24.33.3.56Z"></path><path d="m73.53,82.92l-.57-.41,1.45-2s.04-.09.04-.13c.03-.13,0-.25-.07-.36-.15-.22-.46-.4-.86-.48l-4.02-.16c-.1,0-.2-.02-.3-.03h-.06c-1.03-.14-1.58-.1-1.92.52l-1.14,2.25-.63-.32,1.15-2.26c.64-1.16,1.84-1,2.63-.89h.06c.08.02.16.03.24.03l4.11.17c.6.12,1.07.39,1.33.78.18.27.24.57.18.88-.02.11-.06.24-.13.37l-.04.06-1.45,1.98Z"></path><path d="m72.9,83.05s0-.03,0-.04,0-.03,0-.04c-.04-.41-.14-.69-.31-.83-.27-.22-.83-.15-1.46-.07-.48.06-1.03.13-1.6.11-.57-.04-1.11-.16-1.58-.27-.63-.15-1.17-.28-1.51-.12-.37.17-.58.77-.66,1.82-.04.59-.03,1.17.03,1.73h0s0,.08,0,.08c.02.18.05.35.08.51v.04c.41,2.1,1.58,3.5,2.98,3.58,1.45.08,2.88-1.27,3.57-3.36h0s.01-.04.02-.05l.67.21c-.14.43-.31.84-.5,1.21-.86,1.68-2.2,2.7-3.64,2.7-.05,0-.11,0-.16,0-1.75-.1-3.17-1.74-3.64-4.19v-.04s-.02-.08-.03-.13c-.02-.13-.04-.26-.06-.4-.01-.04-.01-.08-.01-.1-.02-.16-.03-.32-.04-.49-.02-.45-.02-.91.01-1.37.06-.77.19-1.34.4-1.75.17-.31.39-.52.66-.65.16-.08.33-.12.51-.13.44-.04.92.08,1.46.2.47.11.95.22,1.46.26.51.02,1-.04,1.47-.1.8-.11,1.49-.2,2,.22.13.1.23.23.31.39.01.02.02.03.02.05.06.12.11.25.14.4.04.13.06.26.07.41,0,.06.01.11.02.17v.09h-.68s-.02,0-.02,0v-.06Z"></path><path d="m83.82,56.45c-.01-.14-.05-.27-.09-.39-.06-.19-.16-.34-.28-.47-.44-.46-1.12-.45-1.91-.45-.45,0-.95.01-1.44-.07-.48-.09-.93-.25-1.37-.42-.49-.18-.98-.36-1.44-.37-.16,0-.32.02-.47.07-.14.04-.27.11-.4.22-.07.05-.14.12-.2.19-.03.03-.06.07-.08.11-.28.37-.48.92-.64,1.69-.09.53-.15.95-.16,1.33,0,.02,0,.05,0,.07-.02.44-.01.87.03,1.28.22,2.28,1.37,3.95,3.01,4.25.17.03.33.04.5.04,1.27,0,2.54-.81,3.49-2.2.24-.34.45-.72.64-1.12l.03-.07v-.07c.01-.37.06-.78.16-1.29.02-.09.04-.19.06-.27.02-.08.04-.16.06-.23.01-.05.02-.09.04-.14,0,0,0-.01,0-.01,0-.01,0-.02.01-.03,0-.01,0-.02.01-.03.01-.05.03-.1.05-.15.01-.05.03-.09.05-.13.01-.03.02-.06.04-.09.02-.05.05-.11.08-.15.05-.09.11-.17.16-.23l.07-.07.02-.02v-.2c.01-.21,0-.39-.02-.57Zm-.69.51s-.04.05-.06.08c-.03.04-.05.07-.07.12h0c-.03.05-.06.11-.09.16-.02.05-.05.1-.07.15-.03.05-.05.11-.07.17-.02.05-.04.11-.06.17-.02.06-.04.12-.06.18-.04.12-.07.25-.1.39-.02.09-.04.19-.06.28-.02.14-.05.27-.07.39-.01.09-.03.18-.04.27-.02.13-.03.25-.04.37,0,.07-.01.14-.01.21,0,.03,0,.05,0,.08-.94,1.95-2.44,3.06-3.84,2.82-1.58-.28-2.59-2.26-2.46-4.81.01-.38.06-.78.15-1.3.18-.88.4-1.28.57-1.47.14-.17.3-.24.52-.24.28,0,.66.13,1.21.33.44.17.95.35,1.49.45.56.1,1.1.09,1.57.08.63,0,1.16-.01,1.4.23.15.15.21.45.19.88,0,0,0,0,0,0Z"></path><path d="m69.79,53.08l-.59-.38,1.26-1.94c.76-1.06,1.91-.76,2.66-.55l.31.07,3.94.64c.97.32,1.5,1.05,1.27,1.77l-.67-.21c.1-.32-.23-.69-.8-.88l-4.22-.7c-.99-.26-1.52-.29-1.92.27l-1.25,1.93Z"></path><path d="m76.84,54.9v-.02c.01-.19,0-.37-.02-.52-.02-.17-.06-.33-.12-.46-.06-.15-.14-.28-.25-.39-.44-.46-1.11-.46-1.9-.45-.45,0-.95,0-1.45-.08-.5-.08-.95-.25-1.4-.41-.47-.17-.92-.34-1.35-.36-.27-.02-.53.03-.77.17-.14.08-.26.18-.37.31l-.02.03c-.23.28-.41.67-.56,1.21-.05.17-.09.35-.13.56-.01.05-.02.09-.02.13-.39,2.07-.08,4.08.81,5.38.54.78,1.26,1.27,2.08,1.41.17.03.34.05.51.05,1.25,0,2.52-.8,3.47-2.19.23-.33.45-.71.64-1.11l-.63-.3s-.02.04-.03.06c-.95,1.95-2.45,3.04-3.83,2.8-.63-.11-1.19-.5-1.62-1.11-.81-1.18-1.06-3.04-.68-4.98.18-.9.42-1.45.74-1.63.34-.19.86,0,1.53.24.45.17.96.35,1.52.45.56.1,1.1.1,1.57.09.62,0,1.16,0,1.38.23.15.15.21.45.19.89v.13s.04.08.04.08c-.01-.03-.02-.06-.03-.08l.69.04s.01-.07,0-.14Z"></path><path d="m110.03,71.62c-.13-1.57-.51-3.5-.74-4.35h0s-.02-.08-.03-.11c-.08-.22-.13-.33-.2-.4l-.14-.13-.18.03s-.05,0-.08.01c-.2.06-.4.35-1.78,2.95-.32.61-.66,1.24-.75,1.37-.08.12-.13.28-.2.59h0s-.02.09-.03.15c-.03.17-.08.53-.11.71h0c0,.06-.01.1-.01.1h.03s.67.1.67.1c0,0,.09-.58.12-.78.02-.11.08-.37.12-.46,0,0,0,0,0-.01.11-.15.36-.63.79-1.44.34-.64.84-1.59,1.18-2.17.21.88.52,2.51.63,3.89.17,1.91-.99,6.95-1.23,7.36-.05.07-.11.13-.19.17-.2.12-.5.1-.69-.03-.01,0-.05-.05-.14-.23-.01-.03-.03-.07-.05-.11l-.64.3c.16.34.28.51.42.61.02.01.04.03.07.04.22.14.47.2.72.2.04,0,.08,0,.12,0,.19-.01.38-.07.54-.17.06-.04.12-.07.17-.12.09-.07.17-.17.25-.28.36-.59,1.52-5.76,1.35-7.81Z"></path><path d="m107.83,72.6c-.05.28-.12,1.04-.21,1.92-.16,1.55-.35,3.46-.54,4.44-.01.04-.02.08-.02.12v.04s-.02.07-.04.11c-.04.17-.09.37-.14.57-.31,1.22-.79,2.9-1.18,3.56-.11.19-1.15,1.88-2.16,2.01-.04,0-.08,0-.12,0-.24,0-.46-.09-.64-.27-.14-.13-.32-.39-.49-1.08-.09-.35-.18-.82-.27-1.44l.7-.1s0,.05.01.08c.24,1.6.46,1.96.55,2.05.06.06.11.08.19.07.43-.05,1.19-.91,1.65-1.67.3-.5.77-1.99,1.25-3.97,0-.05.01-.08.02-.11.19-.91.4-2.96.55-4.47.09-.92.17-1.66.22-1.96.06-.36-.01-.47-.02-.48,0,0-.01,0-.04.01-.06.04-.26.29-.4.47-.08.11-.18.22-.27.34-.28.34-.55.62-.8.83-.46.37-1.68,1.3-2.5,1.92-.44.33-.76.57-.79.6l-.43-.56s.01-.01.04-.02c0,0,0,0,0,0h0c.34-.26,2.59-1.96,3.23-2.48.12-.1.25-.22.38-.36.08-.09.17-.18.26-.29h0s.06-.08.06-.08c.09-.11.18-.22.26-.33.06-.07.11-.14.17-.2.16-.2.29-.35.43-.43.02-.01.03-.02.05-.03.27-.13.56-.11.77.06.2.15.41.47.28,1.16Z"></path><path d="m103.76,76.38c-.08-.35-.31-.65-.64-.81-.01-.01-.03-.02-.05-.02-.36-.17-.78-.15-1.13.04h0s0,0,0,0c-.41.23-.96.53-1.56.86-.46.25-.94.51-1.42.78-.06.03-.11.06-.17.09-.19.11-.38.22-.57.33-.19.11-.36.21-.53.31-.33.19-.64.37-.89.51-.08.05-.15.09-.22.13l-.3.19.17.28h0c-.13.97-.53,3.95-.65,4.91-.06.43-.14.82-.27,1.22h0s-.02.07-.03.09l.02.09c.1.45.2.81.3,1.11h0c.11.36.21.62.31.79.45.74,1.2,1.18,1.93,1.18.14,0,.28-.02.42-.05.58-.14,2.52-.83,3.46-3.44.11-.31.22-.62.32-.95.14-.43.27-.89.41-1.4,0-.02.01-.05.02-.07.31-1.14.46-1.96.52-2.26.03-.18.07-.43.12-.72.24-1.43.44-2.64.44-2.97,0-.05,0-.13-.02-.21Zm-.68.21c0,.3-.27,1.9-.43,2.86-.05.29-.09.54-.12.72-.05.3-.21,1.11-.52,2.26-.24.88-.47,1.61-.72,2.3-.82,2.28-2.48,2.87-2.97,2.99-.54.14-1.21-.2-1.57-.81-.08-.13-.25-.52-.5-1.61.12-.4.21-.82.27-1.25.12-.97.52-3.98.65-4.9,0-.03.01-.06.01-.09.25-.14.54-.32.87-.5.34-.2.72-.41,1.1-.63.52-.29,1.06-.58,1.57-.86.6-.33,1.16-.63,1.57-.86.15-.08.34-.09.5-.01.15.07.26.2.3.37v.04Z"></path><path d="m89.5,84.63c0,.39,0,.76-.01,1.09-.02,1.16.41,2.76,1.29,3.59.39.37.83.54,1.3.51,1.34-.09,2.78-2.36,3.43-4.53.01-.03.02-.06.03-.09l.67.2c-.1.34-.23.71-.38,1.09h0c-.75,1.84-2.09,3.92-3.7,4.03-.06,0-.12,0-.17,0-.6,0-1.18-.24-1.67-.7-.77-.73-1.23-1.89-1.41-2.96-.07-.41-.1-.8-.09-1.15,0-.33,0-.7.01-1.09.03-3.3.07-4.16.2-4.41.02-.04.04-.08.07-.13.29-.47,1-1.05,1.97-.9.89.12,4.34-.56,4.73-.69.2-.07.44-.11.65-.13.14-.01.27.02.39.08.11.06.2.15.26.26l-.61.34c-.15.03-.33.07-.47.12-.45.14-4,.86-5.05.72-.76-.12-1.21.44-1.31.64-.09.3-.11,2.68-.13,4.1Z"></path><path d="m89.07,80.09c-.3-.65-1.03-1.08-2.01-1.18-1.28-.13-3.17.33-4.77,1.91-.17.17-.33.34-.49.53-.12.15-.24.3-.36.46-.33.45-.59.9-.78,1.33-.07.15-.13.31-.18.46-.03.07-.05.14-.07.22-.06.18-.1.37-.13.55-.04.24-.06.49-.06.73v.12c0,.12,0,.25.01.39.04.59.11,1.29.28,2.03.14.64.34,1.31.64,1.96.69,1.52,1.66,2.08,2.37,2.28.3.08.59.12.88.12.65,0,1.23-.19,1.61-.44.93-.62,2.16-2.18,2.87-4.72.02-.08.05-.16.07-.24.39-1.49.92-4.77.12-6.53Zm-.8,6.35c-.65,2.5-1.84,4.01-2.65,4.55-.33.22-1.1.46-1.9.23-.81-.24-1.45-.87-1.92-1.9-.33-.74-.54-1.5-.67-2.22-.09-.53-.15-1.02-.18-1.46,0-.15-.01-.3-.02-.44,0-.27.01-.53.07-.8h0c.14-.7.47-1.42,1.02-2.18,1.42-1.96,3.29-2.64,4.62-2.64.12,0,.25,0,.36.02.71.07,1.25.36,1.44.77.67,1.47.27,4.43-.16,6.06Z"></path><path d="m107.54,67.26c-.12-.12-.27-.29-.43-.47-.65-.73-1.64-1.84-2.46-2.12l.22-.67c1,.33,2.06,1.52,2.76,2.31.16.18.3.33.41.45l-.51.49Z"></path><g><path d="m54.03,84.94s-.02.03-.04.05h0s.04-.05.04-.05Z"></path><path d="m56.95,83.19c-.16.2-.37.42-.59.63-.04-.34-.04-.67-.04-.97.03-.03.05-.06.08-.09l.56.44Z"></path></g><path d="m57.89,76.67s0-.01,0-.01c0-.02,0-.05,0-.07l-.11-.02-.02-.02h-.01s-.21-.01-.21-.01l-.35-.06s0,.04,0,.1h0c0,.06,0,.12-.02.17l-.02.18h0c-.02.17-.04.38-.06.61-.01.13-.02.26-.04.4l-.02.24h0s0,.06,0,.06l-.16,1.69h0s-.01.09-.01.09v.08s.67.07.67.07h.01v-.04s0,0,0,0l.07-.7.12-1.22h0s.02-.22.02-.22c.04-.45.08-.84.1-1.12l.06-.18-.04-.04Z"></path><path d="m57.9,76.58s0,.05,0,.07c0,0,0,.01,0,.02,0,.19-.06.38-.16.56l-.02.04-.26.35-.41.56h0s-.04.06-.04.06l-.83,1.14h0s-.06.08-.06.08l-.57-.41.39-.53,1.19-1.63s.04-.09.05-.13c.01-.05.02-.11.02-.15,0-.06-.02-.13-.05-.2-.14-.29-.51-.52-1-.62l-4.37-.18c-.13,0-.26-.02-.39-.04-1.13-.15-1.74-.1-2.12.58l-.66,1.3-.58,1.14-.6-.31h-.02s1.25-2.46,1.25-2.46c0,0,0-.01.01-.02.13-.24.29-.43.46-.57.69-.58,1.63-.46,2.35-.37.11.01.22.03.33.04l4.45.18c.73.14,1.29.51,1.53,1.02.07.15.11.32.12.48Z"></path><g><path d="m55.94,78.5l-.39.53.57.41.06-.07h0c-.04-.35-.12-.64-.24-.87Zm-8.52-.23l.6.31.58-1.14c-.26.03-.5.11-.71.27-.19.14-.34.32-.47.57Z"></path><path d="m56.32,82.84c-.2.25-.49.52-.79.78.34-.89.57-1.89.65-2.96.04-.5.04-.92,0-1.28l-.06.07-.57-.41.39-.53c-.08-.15-.17-.28-.29-.39-.54-.51-1.31-.4-2.21-.29-.49.06-1.05.13-1.61.11-.56-.03-1.09-.15-1.6-.27-.58-.14-1.14-.27-1.63-.21l-.58,1.14-.6-.31c-.23.44-.37,1.05-.43,1.88-.18,2.39.43,4.62,1.61,5.96.69.78,1.54,1.22,2.46,1.27.06,0,.12,0,.17,0,1.28,0,2.46-.75,3.36-1.99l.12-.14c.15-.14.38-.34.63-.55.32-.27.7-.58,1.03-.9-.04-.34-.04-.67-.04-.97Zm-5.23,3.84c-.72-.04-1.4-.4-1.96-1.04-1.06-1.2-1.6-3.23-1.43-5.44.08-1.03.28-1.68.62-1.93.15-.11.33-.15.55-.15.33,0,.74.1,1.21.21.51.12,1.1.26,1.72.3.63.03,1.22-.05,1.74-.11.75-.1,1.34-.17,1.63.11.22.21.33.66.33,1.37,0,.19,0,.39-.02.62-.12,1.71-.67,3.24-1.44,4.33h0s-.02.04-.04.05c-.79,1.1-1.82,1.75-2.91,1.69Z"></path></g><path d="m76.86,54.89l-.57-.41,1.19-1.63c.18-.26.41-.46.69-.59.6-.27,1.24-.14,1.96.04l.31.07,3.93.64c.46.15.83.4,1.06.7.26.34.33.72.21,1.09l-.67-.22c.05-.14.01-.29-.1-.44-.14-.18-.39-.34-.7-.45l-4.21-.7c-.59-.15-1.11-.26-1.5-.08-.16.08-.29.19-.41.36l-1.2,1.63Z"></path></g><g><path d="m58.54,93.12c-.53.54-1.58.86-2.56.78s-2.25-.77-2.91-1.39c-.58-.54-1-1.47-.45-2.47.34-.63,1.35-.95,2.05-.95.08,0,.16,0,.23.01.29.03.53.17.75.33.06.05.12.09.18.14.07.06.13.12.2.18.1.09.2.18.31.26.15.11.33.19.54.21.2.01.44-.04.7-.09.06-.01.12-.02.18-.04.19-.04.38-.07.54-.07l.19.05c.27.14.53.6.64,1.12.15.72-.18,1.51-.59,1.92Z"></path><path d="m56.27,89.5c-.07-.06-.14-.13-.21-.19-.11-.09-.24-.19-.37-.27l.66.53s-.05-.04-.08-.07Zm2.06.53s-.02,0-.04,0l.19.05s-.1-.04-.15-.05Z"></path></g></g></g></g></svg>