<svg xmlns="http://www.w3.org/2000/svg" id="Layer_2" viewBox="0 0 150 150"><defs><style>.cls-1{fill:none;}</style></defs><g id="Layer_1-2"><g><rect class="cls-1" width="150" height="150"></rect><g><path d="m116.17,73.55l-.71-.37c.55-1.05,2.1-9.75.57-11.96-1.4-2.02-21.29-2.76-34.6-.74-1.86.28-3.42.43-4.9.46-.5,0-2.48,0-2.98,0-1.48-.03-3.04-.17-4.9-.46-13.31-2.03-33.2-1.28-34.6.74-1.53,2.21.02,10.91.57,11.96l-.71.37c-.7-1.34-2.28-10.24-.52-12.79,2.09-3.02,25.59-2.56,35.38-1.07,1.83.28,3.35.42,4.79.45.48,0,2.47,0,2.95,0,1.44-.03,2.97-.17,4.79-.45,9.79-1.49,33.29-1.95,35.38,1.07,1.76,2.55.18,11.45-.52,12.79Z"></path><path d="m89.48,85.31c-.33,0-.67-.01-1.02-.03h-.11c-3.07-.12-4.16-1.78-4.03-6.13h0c.08-2.56.7-4.4,1.84-5.45.81-.75,1.86-1.1,3.13-1.03,2.55.13,4.24,3.43,4.1,8.03-.06,1.88-.44,3.09-1.21,3.8-.72.67-1.67.8-2.72.8Zm-.47-11.84c-.93,0-1.7.28-2.29.82-.98.91-1.52,2.55-1.59,4.89h0c-.13,4.37.99,5.21,3.26,5.3h.11c1.32.06,2.45.1,3.16-.56.59-.55.9-1.61.95-3.24.12-4.14-1.25-7.1-3.34-7.21-.08,0-.17,0-.25,0Z"></path><path d="m75.12,77.94c-4.91,0-9.87-.15-10.33-.43l.43-.68s-.04-.02-.04-.02c1.17.42,18.54.42,19.56,0l.34.73c-.59.28-5.25.41-9.97.41Z"></path><path d="m96.78,85.65c-.86,0-1.68-.41-2.51-.9-1.04-.61-1.99-1.5-2.03-1.54l.55-.59s.93.87,1.89,1.43c1.53.9,2.64,1.35,4.12-.44.88-1.07.8-4.27-.2-8.57-.24-1.02-1.07-1.85-1.79-2.21-.48-.24-.92-.31-1.23-.18-.79.33-1.73,1.82-2.29,2.71-.15.24-.28.45-.39.6l-.66-.46c.1-.15.23-.34.37-.57.65-1.03,1.63-2.58,2.66-3.02.53-.22,1.21-.15,1.91.21,1.08.55,1.95,1.63,2.21,2.75.63,2.71,1.48,7.51.04,9.26-.93,1.13-1.8,1.53-2.64,1.53Z"></path><path d="m103.66,84.92c-.35,0-.71-.07-1.07-.21-1.59-.61-2.91-1.68-2.96-1.73l.51-.62s1.28,1.04,2.74,1.6c.57.22,1.1.21,1.53-.03.47-.26.82-.79.96-1.46.3-1.48-.3-5.36-.71-6.89-.36-1.36-1.5-2.42-2.48-2.32-.82.08-1.81.98-2.46,1.57-.18.16-.34.31-.48.42l-.51-.62c.13-.1.28-.24.45-.39.77-.7,1.83-1.67,2.92-1.78,1.38-.13,2.87,1.17,3.34,2.91.44,1.64,1.05,5.63.72,7.26-.19.91-.67,1.62-1.36,2-.35.19-.73.29-1.14.29Z"></path><path d="m109.15,84.8c-1.09,0-3.2-1.49-3.67-1.96l.57-.57c.47.47,2.39,1.72,3.1,1.72.47,0,1.2-.57,2.18-1.69.29-.48.63-5.03.04-7.07-.59-2.08-2.63-1.72-3.03-1.62-.66.15-1.51,1.16-2.13,1.89-.21.24-.4.47-.58.66l-.59-.55c.17-.18.36-.4.55-.64.77-.91,1.65-1.94,2.56-2.16,1.45-.34,3.37.02,3.98,2.18.51,1.77.46,7.04-.2,7.8-.81.93-1.85,1.98-2.8,1.98Z"></path><path d="m114.56,83.37c-.98,0-2.72-.67-3.1-1.58l.74-.31c.2.48,1.52,1.09,2.36,1.09.57,0,1.2-.63,1.69-1.7.39-.85.43-3.86.16-4.9-.31-1.19-1.27-2.46-1.66-2.41-.6.09-1.77.8-2.67,1.83l-.6-.53c.95-1.08,2.28-1.96,3.15-2.09,1.13-.17,2.25,1.83,2.56,3,.32,1.22.27,4.41-.2,5.44-.37.81-1.17,2.17-2.42,2.17Z"></path><path d="m60.4,85.31c-1.04,0-2-.13-2.72-.8-.77-.71-1.15-1.92-1.21-3.8-.14-4.6,1.55-7.9,4.1-8.03,1.27-.06,2.32.28,3.13,1.03,1.15,1.06,1.77,2.89,1.84,5.45h0c.13,4.35-.96,6.01-4.03,6.12h-.11c-.34.02-.69.03-1.02.03Zm.47-11.84c-.08,0-.17,0-.25,0-2.09.11-3.47,3.07-3.34,7.21.05,1.63.36,2.69.95,3.24.7.66,1.84.61,3.16.56h.11c2.26-.09,3.39-.93,3.26-5.3h0c-.07-2.34-.6-3.98-1.59-4.89-.59-.55-1.36-.82-2.29-.82Z"></path><path d="m53.1,85.65c-.84,0-1.71-.4-2.64-1.53-1.44-1.75-.59-6.55.04-9.26.26-1.12,1.13-2.2,2.21-2.75.7-.36,1.37-.43,1.91-.21,1.03.43,2.01,1.99,2.66,3.02.14.23.27.42.37.57l-.66.46c-.11-.15-.24-.36-.39-.6-.56-.89-1.5-2.37-2.29-2.71-.3-.13-.75-.06-1.23.18-.72.37-1.55,1.19-1.79,2.21-1,4.3-1.08,7.5-.2,8.57,1.48,1.8,2.59,1.34,4.12.44.96-.57,1.88-1.42,1.89-1.43l.55.59s-1,.93-2.03,1.54c-.83.49-1.66.9-2.51.9Z"></path><path d="m46.22,84.92c-.4,0-.79-.1-1.14-.29-.69-.38-1.17-1.09-1.36-2-.33-1.62.28-5.62.72-7.26.47-1.74,1.97-3.05,3.34-2.91,1.08.11,2.14,1.07,2.92,1.77.17.15.32.29.45.39l-.51.62c-.13-.11-.3-.26-.48-.42-.65-.59-1.64-1.49-2.46-1.57-.98-.1-2.12.96-2.48,2.32-.41,1.53-1.01,5.4-.71,6.89.14.67.48,1.2.96,1.46.44.24.97.25,1.53.03,1.46-.56,2.73-1.59,2.74-1.6l.51.62c-.06.05-1.38,1.12-2.96,1.73-.37.14-.73.21-1.07.21Z"></path><path d="m40.73,84.8c-.95,0-1.99-1.05-2.79-1.97-.67-.77-.72-6.04-.21-7.81.62-2.16,2.53-2.52,3.98-2.18.91.22,1.79,1.25,2.56,2.16.2.23.38.45.55.63l-.59.55c-.18-.19-.37-.42-.58-.66-.62-.73-1.48-1.74-2.13-1.89-.4-.09-2.43-.46-3.03,1.62-.58,2.04-.25,6.59.05,7.07,1.22,1.4,1.86,1.69,2.18,1.69.71,0,2.63-1.25,3.1-1.72l.57.57c-.47.47-2.59,1.96-3.67,1.96Z"></path><path d="m35.32,83.37c-1.24,0-2.05-1.36-2.42-2.17-.47-1.03-.52-4.22-.2-5.44.31-1.17,1.43-3.16,2.56-3,.88.14,2.2,1.02,3.15,2.09l-.6.53c-.91-1.03-2.07-1.74-2.67-1.83-.39-.05-1.35,1.22-1.66,2.41-.28,1.05-.23,4.05.16,4.9.48,1.06,1.11,1.7,1.69,1.7.84,0,2.16-.61,2.36-1.09l.74.31c-.38.92-2.12,1.58-3.1,1.58Z"></path><g><path d="m75.18,75.22c0-1.67,1.54-2.61,4.12-2.61s4.5.94,4.5,2.61-1.91,1.51-4.5,1.51-4.12.16-4.12-1.51Z"></path><path d="m74.7,75.22c0-1.67-1.54-2.61-4.12-2.61s-4.5.94-4.5,2.61,1.91,1.51,4.5,1.51,4.12.16,4.12-1.51Z"></path></g></g></g></g></svg>