<svg xmlns="http://www.w3.org/2000/svg" id="Layer_2" viewBox="0 0 90 90"><defs><style>.cls-1,.cls-2,.cls-3,.cls-4{fill:none;}.cls-5{fill:#ccc;}.cls-2,.cls-3{stroke-linecap:round;}.cls-2,.cls-3,.cls-4{stroke:#000;stroke-miterlimit:10;}.cls-3{stroke-dasharray:0 0 0 2;}</style></defs><g id="Layer_1-2"><g><rect class="cls-1" width="90" height="90"></rect><g><path class="cls-5" d="m51.99,48.32s-.07.08-.1.13c-.82,1.46.93,15.56-6.79,15.56s-5.98-14.1-6.8-15.56c.82,1.46,2.01,7.47,6.79,7.48h.01c4.78-.01,5.97-6.02,6.79-7.48.03-.05.07-.1.11-.13Z"></path><path class="cls-3" d="m37.75,48.22c.22,0,.43.12.54.31.82,1.46-.91,15.56,6.8,15.56s5.97-14.11,6.79-15.56c.11-.2.32-.31.54-.31"></path><path class="cls-4" d="m35.76,48.22h1.99c.22,0,.43.12.54.31.82,1.46,2.01,7.49,6.8,7.49h-.02c4.79,0,5.98-6.03,6.8-7.49.11-.2.32-.31.54-.31h1.99"></path><path class="cls-4" d="m68.1,36.44c1.11,0,2.01.94,1.94,2.05-.66,9.93-4.36,17.53-8.82,17.53s-8.16-7.6-8.82-17.53c-.07-1.11.82-2.05,1.94-2.05h13.77Z"></path><path class="cls-2" d="m79.07,47.38s.29,6.05-1.73,6.91"></path><path class="cls-2" d="m66.11,47.38c-.29,2.3-2.02,5.18-4.61,6.33"></path><path class="cls-4" d="m70.04,38.5s5-2.05,6.73-2.34,4.61.58,4.61,3.46-.08,11.15-1.15,13.82c-1.15,2.88-2.61,3.46-4.47,2.59s-6.95-7.77-7.28-8.64"></path><path class="cls-4" d="m88.86,54.13s-5.76-2.09-8.06-3.98"></path><line class="cls-4" x1="88.86" y1="37.31" x2="80.8" y2="37.83"></line><path class="cls-4" d="m21.9,36.44c-1.11,0-2.01.94-1.94,2.05.66,9.93,4.36,17.53,8.82,17.53s8.16-7.6,8.82-17.53c.07-1.11-.82-2.05-1.94-2.05h-13.77Z"></path><path class="cls-2" d="m10.93,47.38s-.29,6.05,1.73,6.91"></path><path class="cls-2" d="m23.89,47.38c.29,2.3,2.02,5.18,4.61,6.33"></path><path class="cls-4" d="m19.96,38.5s-5-2.05-6.73-2.34-4.61.58-4.61,3.46.08,11.15,1.15,13.82c1.15,2.88,2.61,3.46,4.47,2.59s6.95-7.77,7.28-8.64"></path><path class="cls-4" d="m1.14,54.13s5.76-2.09,8.06-3.98"></path><line class="cls-4" x1="1.14" y1="37.31" x2="9.2" y2="37.83"></line></g></g></g></svg>