<svg xmlns="http://www.w3.org/2000/svg" id="Layer_2" viewBox="0 0 150 150"><defs><style>.cls-1{fill:none;}</style></defs><g id="Layer_1-2"><g><rect class="cls-1" width="150" height="150"></rect><g><path d="m85.6,73.8c-1.51,0-3.28-.81-3.4-4.55h0c-.08-2.81,1.02-3.13,2.29-3.51.26-.08.52-.15.8-.26.78-.29,1.67-.52,2.36-.06.62.42.93,1.31.98,2.75.07,2.27-.35,3.95-1.22,4.87-.46.49-1.03.74-1.7.76-.04,0-.07,0-.11,0Zm1.12-7.94c-.36,0-.79.13-1.18.28-.3.11-.59.2-.85.27-1.23.36-1.85.54-1.78,2.81h0c.08,2.65.98,3.92,2.79,3.87.48-.01.87-.19,1.21-.54.72-.76,1.09-2.31,1.03-4.36-.04-1.17-.26-1.91-.67-2.19-.15-.1-.33-.14-.53-.14Z"></path><path d="m79.13,75.38c-2.19,0-3.5-2-3.5-5.35,0-1.4.22-2.24.71-2.72.56-.56,1.38-.54,2.32-.53.3,0,.63,0,.94,0,1.04-.01,1.94-.02,2.57.6.51.5.75,1.35.75,2.65,0,3.25-1.49,5.35-3.78,5.35Zm-.89-7.91c-.64,0-1.11.04-1.41.33-.34.34-.5,1.04-.5,2.22,0,2.96,1.02,4.65,2.79,4.65,1.87,0,3.08-1.83,3.08-4.65,0-1.09-.18-1.8-.54-2.15-.42-.42-1.15-.41-2.07-.4-.31,0-.65,0-.95,0-.14,0-.28,0-.41,0Z"></path><path d="m90.88,71.87c-.54,0-1.03-.08-1.31-.21-.62-.28-1.35-.89-1.35-2.16,0-.72-.14-2.1-.22-2.85h0c-.05-.45.03-.9.22-1.3.07-.16.14-.32.21-.48.29-.7.63-1.5,1.47-1.76.7-.22,2.85-.03,3.53.92.61.84.92,2.46.92,3.63,0,1.08-.28,3.09-1.31,3.72-.56.34-1.41.49-2.16.49Zm-2.19-5.3c.08.77.23,2.17.23,2.93s.31,1.23.94,1.52c.45.21,2.05.23,2.81-.24.67-.41.98-2.07.98-3.12s-.3-2.53-.79-3.22c-.46-.63-2.25-.82-2.76-.66-.53.16-.76.72-1.03,1.36-.07.17-.14.34-.22.51-.14.29-.19.61-.15.92h0Z"></path><path d="m94.84,69.25c-.45,0-.88-.13-1.11-.47l.59-.39c.11.17.74.24,1.25,0,.39-.18,2.01-1.8,2.62-2.41.19-.19.34-.34.41-.41.25-.44.74-3.5.49-4.41-.17-.64-.68-1.32-1.38-1.32-.4,0-.93.23-1.4.43-.46.2-.85.36-1.18.36s-.77-.17-1.28-.36c-.55-.2-1.17-.43-1.58-.43-.84,0-1.26.61-1.41.87-.26.48-.49,2.19-.29,2.56l-.62.34c-.37-.67-.04-2.64.29-3.23.42-.77,1.18-1.24,2.03-1.24.54,0,1.22.25,1.82.48.4.15.85.31,1.04.31s.55-.16.9-.31c.53-.23,1.13-.48,1.67-.48,1.07,0,1.81.95,2.06,1.84.28,1.04-.2,4.65-.67,5.09-.06.05-.21.2-.41.4-1.43,1.43-2.41,2.36-2.83,2.55-.28.13-.66.22-1.02.22Z"></path><path d="m99.51,64.7l-.29-.64c.89-.4,1.96-1.41,2.47-2.36.26-.48.82-2.27.82-2.73,0-.22-.02-.51-.05-.84-.07-.83-.15-1.87.06-2.67.05-.2-.05-.75-.32-1.11-.15-.19-.31-.29-.48-.29-.29,0-.72.07-1.17.15-.86.14-1.75.29-2.37.1-.12-.04-.25-.08-.38-.12-.65-.21-1.86-.59-2.23-.42-.57.26-1.02.77-1.25,1.38-.12.34-.12.69-.12,1,0,.38,0,.75-.26.98-.23.21-.99,1.41-.76,2.28l-.68.18c-.34-1.26.66-2.71.96-2.98.03-.05.03-.29.03-.47,0-.35,0-.79.16-1.24.29-.79.87-1.44,1.61-1.78.57-.26,1.54,0,2.74.39.13.04.26.08.37.12.46.14,1.3,0,2.04-.12.48-.08.94-.16,1.28-.16.4,0,.76.2,1.04.57.37.49.57,1.26.44,1.72-.19.68-.11,1.65-.04,2.43.03.35.05.65.05.9,0,.62-.61,2.53-.9,3.06-.59,1.09-1.77,2.21-2.8,2.67Z"></path><path d="m103.05,59.53l-.37-.6c.86-.53,2.74-2.31,2.99-3.21.13-.47.06-1.17-.01-1.85-.07-.72-.14-1.4.02-1.86.3-.83.52-2.02.29-2.66-.2-.56-1.67-1.07-2.43-.84-1.36.42-2.28.5-2.82.25-.54-.25-1.84-.47-2.28-.26-.16.07-.43.46-.6.97-.16.5-.15.82-.1.91.35.65.08,1.35-.36,1.74-.13.12-.25.73-.3.99-.03.15-.06.28-.08.37l-.68-.19c.02-.08.04-.19.07-.32.12-.6.24-1.11.51-1.37.17-.16.41-.53.22-.89-.25-.45-.05-1.18.05-1.47.09-.26.41-1.13.97-1.39.71-.33,2.26-.02,2.87.26.17.08.74.21,2.32-.28,1.03-.32,2.94.3,3.29,1.27.31.87.04,2.23-.29,3.14-.11.31-.05.94.02,1.55.08.74.16,1.51,0,2.11-.33,1.2-2.45,3.11-3.3,3.63Z"></path><path d="m106.25,54.75l-.48-.52c.81-.75,1.91-2.78,2.18-4.03.2-.91.11-2.35.04-3.41-.03-.4-.05-.75-.05-.99,0-.62-.63-1.51-1.47-1.77-.79-.24-1.29-.24-2.08,0-.73.22-1.64,0-2.25-.28-.4-.18-1.4,0-1.99.26-.46.21-.65.36-.65,1,0,.93.08,2.63.15,2.86,0,0,0-.02-.03-.05l-.59.39c-.22-.34-.24-3.17-.24-3.19,0-.96.39-1.33,1.06-1.64.51-.24,1.82-.61,2.58-.26.51.23,1.25.4,1.75.25.92-.28,1.57-.28,2.49,0,1.06.33,1.96,1.44,1.96,2.44,0,.22.02.56.05.95.07,1.1.16,2.6-.05,3.6-.3,1.38-1.49,3.56-2.39,4.4Z"></path><path d="m108.45,49.02l-.29-.64.15.32-.15-.32c.37-.19,1.51-2.6,1.51-3.37,0-3.01-.17-3.65-.24-3.78-.27-.5-.78-1.44-1.77-1.67-.63-.14-1.18-.02-1.71.11-.35.08-.71.17-1.08.17-.41,0-.8-.15-1.18-.29-.52-.2-1.02-.38-1.6-.25-1.1.25-2.33.53-1.5,4.22l-.69.15c-.9-4.04.5-4.71,2.02-5.06.79-.18,1.44.06,2.01.27.34.13.65.24.94.24s.59-.07.92-.15c.58-.14,1.24-.29,2.02-.11,1.3.3,1.93,1.46,2.23,2.02.23.42.33,1.69.33,4.12,0,.79-1.13,3.64-1.92,4.01Z"></path><path d="m102.87,55.11v-.7c1.63,0,2.76-3.14,3.04-4.65.05-.28.15-.54.29-.8.34-.62,1.46-2.75,1.46-3.93v-.15l.11-.1c.71-.65.97-1.83,1.19-2.79.11-.48.2-.89.34-1.2l.65.28c-.11.25-.2.65-.3,1.08-.23,1-.51,2.24-1.29,3.04-.07,1.27-.99,3.11-1.54,4.12-.11.19-.18.39-.22.59-.27,1.45-1.48,5.23-3.73,5.23Z"></path><path d="m94.65,64.84c-.16,0-.32-.03-.49-.1-1.93-.76-3.45-1.2-4.16-1.2v-.7c.82,0,2.38.45,4.42,1.25.49.19.97-.27,1.84-1.17l.21-.22c1.05-1.08,2.42-2.39,2.44-2.4l.06-.06.08-.02c.65-.2,1.74-2.05,2.06-2.94.17-.48.8-2.11,1.52-2.77l.48.52c-.48.44-1.02,1.62-1.34,2.49-.22.6-1.36,2.92-2.43,3.35-.26.25-1.44,1.38-2.36,2.33l-.21.22c-.76.79-1.38,1.44-2.11,1.44Z"></path><path d="m76.04,108.55h-.04c-10.79,0-19.28-4.46-24.5-8.2-6.13-4.39-11.3-13.74-11.3-20.42v-7.02h.7v7.02c0,6.48,5.04,15.57,11.01,19.84,5.13,3.68,13.48,8.06,24.09,8.06h.04c10.61,0,18.95-4.38,24.09-8.06,5.97-4.28,11.01-13.36,11.01-19.84v-7.02h.7v7.02c0,6.68-5.18,16.03-11.3,20.42-5.22,3.74-13.7,8.2-24.5,8.2Z"></path><path d="m69.17,88.28c-3.47-1.27-6.35-3.16-8.15-4.52l.42-.56c1.76,1.33,4.58,3.19,7.97,4.42l-.24.66Z"></path><path d="m95.16,79.14l-.57-.41.17-.24c.82-1.16,1.7-2.5,2.61-3.98,1-1.64,2.6-2.87,4.5-3.47.13-.04.25-.08.39-.11l.19.68c-.12.03-.24.07-.36.11-1.74.55-3.2,1.67-4.11,3.17-.92,1.49-1.8,2.85-2.63,4.02l-.17.24Z"></path><path d="m76.04,101.18h-.16c-.76,0-1.53-.03-2.27-.07-.29-.02-.58-.04-.87-.06-.85-.07-1.59-.16-2.29-.26h-.02c-3.65-.53-7.28-1.58-10.81-3.13-.05-.02-.11-.05-.17-.08-.07-.03-.1-.05-.14-.07-.97-.43-1.98-.93-2.98-1.47l-.04-.02s-.04-.02-.06-.03c-1.61-.87-3.21-1.87-4.73-2.95-.59-.42-1.2-.91-1.8-1.45-.03-.03-.07-.06-.12-.1-.97-.89-1.92-1.89-2.81-2.99l-.22-.28c-3.92-4.93-6.35-10.86-6.35-15.5,0-.55,2.49-1.95,5.89-2.1.2-.01.43,0,.68,0l-.04.7c-.23-.01-.43-.01-.61,0-3.02.13-4.84,1.22-5.22,1.53.05,4.4,2.47,10.24,6.19,14.93l.22.27c.87,1.07,1.79,2.05,2.74,2.91.03.03.06.06.1.09.6.53,1.18,1.01,1.75,1.41,1.51,1.08,3.08,2.06,4.68,2.92l.05.03c1,.54,2,1.03,2.98,1.47.04.02.06.03.07.03l.05.02s.1.05.15.07c3.47,1.53,7.03,2.56,10.61,3.08h.03c.68.11,1.43.19,2.26.27.28.02.56.05.85.06.73.05,1.48.07,2.23.07h.16c.88,0,1.74-.03,2.56-.09h.17c.29-.04.59-.06.87-.09.65-.06,1.33-.14,2.08-.25l.11-.02c.31-.05.63-.1.96-.16,3.14-.57,6.27-1.53,9.31-2.86l.15-.06c.1-.04.19-.08.28-.12l.19-.09c.87-.4,1.75-.84,2.62-1.31.09-.05.18-.1.26-.14.07-.04.12-.06.17-.09,1.5-.83,2.96-1.75,4.36-2.75.6-.43,1.21-.92,1.82-1.47.03-.03.06-.05.09-.08.04-.04.06-.06.09-.08.95-.87,1.88-1.88,2.78-3.01,0,0,0-.01.02-.03l.07-.09s.04-.05.07-.08c3.7-4.72,6.02-10.36,6.07-14.76-.4-.32-2.34-1.48-5.54-1.54v-.7c3.55.07,6.25,1.53,6.25,2.11,0,4.57-2.38,10.45-6.22,15.34l-.06.07s-.04.05-.05.07c0,.01-.02.02-.03.04-.94,1.18-1.9,2.22-2.86,3.1-.03.03-.06.06-.1.09-.02.02-.06.06-.1.09-.63.57-1.26,1.08-1.88,1.52-1.42,1.01-2.91,1.95-4.43,2.79-.05.03-.1.06-.16.09-.09.05-.19.11-.28.16-.87.47-1.77.92-2.66,1.33l-.2.09c-.1.04-.19.08-.28.12l-.15.06c-3.08,1.36-6.27,2.34-9.47,2.91-.33.06-.65.11-.99.16l-.11.02c-.75.11-1.44.19-2.11.25-.29.03-.59.05-.89.08h-.17c-.84.07-1.72.1-2.61.1Z"></path><path d="m83.15,88.17l-.25-.66c.24-.09.48-.18.71-.28,3.15-1.3,5.72-3.05,7.32-4.3l.43.56c-1.63,1.27-4.26,3.06-7.48,4.39-.24.1-.48.2-.73.29Z"></path><path d="m76.02,89.6c-.69,0-1.4-.05-2.11-.14-.17-.02-.33-.04-.49-.07l.11-.7c.16.02.32.05.47.07.68.09,1.36.13,2.02.13h.08c.7,0,1.43-.06,2.16-.16h.04c.18-.03.36-.06.54-.09h.06s0,.36,0,.36l.06.34c-.19.03-.38.06-.57.09h-.04c-.77.11-1.53.17-2.26.17h-.08Z"></path><path d="m57,79.32c-.09-.12-.17-.23-.25-.35-.85-1.19-1.74-2.56-2.68-4.08-.43-.7-.99-1.33-1.65-1.86-.68-.54-1.5-.95-2.42-1.2l.19-.68c1.01.28,1.91.72,2.67,1.33.73.59,1.34,1.27,1.82,2.04.93,1.51,1.82,2.86,2.64,4.03.09.13.17.24.25.35l-.57.42Z"></path><path d="m76,79.15c-12.71,0-21.4-7.12-24.54-10.19-6.1-5.95-11.26-18.6-11.26-27.63,0-.01,0-.03,0-.06-.03-.18-.09-.56.2-.9.36-.41,1.1-.58,2.36-.54l-.02.7c-1.35-.04-1.71.2-1.8.3-.06.07-.06.15-.03.32.01.07.02.13.02.17,0,8.87,5.06,21.29,11.05,27.13,3.08,3,11.59,9.99,24.05,9.99s20.97-6.98,24.05-9.99c5.99-5.84,11.05-18.26,11.05-27.13,0-.04,0-.1.02-.17.03-.17.03-.25-.03-.32-.09-.1-.45-.34-1.8-.3l-.02-.7c1.25-.04,2,.13,2.36.54.29.33.23.71.2.9,0,.02,0,.04,0,.06,0,9.02-5.16,21.68-11.26,27.63-3.14,3.06-11.82,10.19-24.54,10.19Z"></path><path d="m66.39,73.8s-.07,0-.11,0c-.67-.02-1.24-.27-1.7-.76-.86-.91-1.29-2.6-1.22-4.87.04-1.43.36-2.33.98-2.75.68-.46,1.57-.23,2.36.06.28.1.54.18.8.26,1.27.37,2.37.7,2.29,3.51h-.35s.35,0,.35,0c-.11,3.74-1.88,4.55-3.4,4.55Zm-1.12-7.94c-.2,0-.38.04-.53.14-.41.28-.63,1.01-.67,2.19-.06,2.05.3,3.6,1.03,4.36.33.35.73.53,1.21.54,1.79.05,2.71-1.22,2.79-3.87.07-2.27-.55-2.45-1.78-2.81-.26-.07-.55-.16-.85-.27-.4-.15-.82-.28-1.18-.28Z"></path><path d="m72.87,75.38c-2.3,0-3.78-2.1-3.78-5.35,0-1.31.24-2.15.75-2.65.63-.62,1.53-.61,2.57-.6.31,0,.64,0,.94,0,.95-.01,1.76-.02,2.32.53.49.48.71,1.32.71,2.72,0,3.35-1.31,5.35-3.5,5.35Zm-.91-7.91c-.72,0-1.28.05-1.64.4-.36.36-.54,1.06-.54,2.15,0,2.83,1.21,4.65,3.08,4.65s2.79-1.69,2.79-4.65c0-1.18-.16-1.88-.5-2.22-.35-.35-.97-.34-1.82-.33-.3,0-.64,0-.95,0-.15,0-.29,0-.43,0Z"></path><path d="m61.12,71.87c-.75,0-1.6-.15-2.16-.49-1.04-.64-1.31-2.64-1.31-3.72,0-1.17.32-2.79.92-3.63.69-.95,2.83-1.13,3.53-.92.85.26,1.18,1.06,1.47,1.76.07.16.14.32.21.48.19.41.27.86.22,1.3-.08.75-.22,2.13-.22,2.85,0,1.27-.73,1.88-1.35,2.16-.29.13-.77.21-1.31.21Zm.28-8.14c-.74,0-1.9.22-2.26.71-.5.68-.79,2.17-.79,3.22s.3,2.71.98,3.12c.77.47,2.36.45,2.82.24.63-.29.94-.79.94-1.52s.14-2.16.23-2.93h0c.04-.32-.02-.64-.15-.92-.08-.17-.15-.34-.22-.51-.27-.64-.5-1.2-1.03-1.36-.11-.03-.29-.05-.5-.05Z"></path><path d="m57.16,69.25c-.37,0-.74-.09-1.02-.22-.42-.19-1.4-1.12-2.83-2.55-.2-.2-.35-.35-.41-.4-.48-.44-.95-4.05-.67-5.09.24-.89.99-1.84,2.06-1.84.54,0,1.14.26,1.67.48.35.15.72.31.9.31s.64-.17,1.04-.31c.6-.22,1.29-.48,1.82-.48.85,0,1.6.46,2.03,1.24.32.59.65,2.56.29,3.23l-.62-.34c.2-.37-.03-2.08-.29-2.56-.14-.26-.56-.87-1.41-.87-.41,0-1.03.23-1.58.43-.52.19-.96.36-1.28.36s-.72-.17-1.18-.36c-.47-.2-1-.43-1.4-.43-.7,0-1.2.68-1.38,1.32-.25.91.24,3.97.49,4.41.07.07.22.21.41.41.61.61,2.23,2.23,2.62,2.41.51.23,1.14.16,1.25,0l.59.39c-.23.34-.66.47-1.11.47Z"></path><path d="m52.49,64.7c-1.03-.46-2.21-1.58-2.8-2.67-.29-.53-.9-2.45-.9-3.06,0-.25.02-.55.05-.9.06-.78.14-1.75-.04-2.43-.13-.46.07-1.24.44-1.72.28-.37.64-.57,1.04-.57.35,0,.8.08,1.28.16.74.12,1.59.26,2.04.12.12-.04.24-.08.37-.12,1.2-.38,2.17-.66,2.74-.39.74.34,1.33.99,1.61,1.78.16.45.16.89.16,1.24,0,.17,0,.41.04.47.29.27,1.29,1.72.95,2.98l-.68-.18c.24-.87-.53-2.07-.76-2.28-.26-.24-.26-.6-.26-.98,0-.31,0-.66-.12-1-.22-.61-.68-1.12-1.25-1.38-.37-.17-1.58.22-2.23.42-.14.04-.26.08-.38.12-.62.19-1.51.04-2.37-.1-.45-.08-.88-.15-1.17-.15-.17,0-.33.1-.48.29-.28.36-.38.91-.32,1.11.22.8.13,1.84.06,2.67-.03.33-.05.62-.05.84,0,.46.56,2.25.82,2.73.52.95,1.58,1.97,2.47,2.36l-.29.64Z"></path><path d="m48.95,59.53c-.85-.52-2.98-2.43-3.3-3.63-.16-.6-.08-1.37,0-2.11.06-.61.13-1.24.02-1.55-.33-.91-.6-2.27-.29-3.14.35-.97,2.26-1.59,3.29-1.27,1.59.49,2.15.36,2.32.28.61-.28,2.16-.59,2.87-.26.56.26.88,1.13.97,1.39.1.29.3,1.02.05,1.47-.2.36.04.73.22.89.28.25.4.77.51,1.37.03.13.05.24.07.32l-.68.19c-.02-.09-.05-.22-.08-.37-.05-.26-.17-.87-.3-.99-.43-.4-.71-1.09-.36-1.74.05-.09.06-.42-.1-.91-.17-.51-.44-.9-.6-.97-.43-.2-1.76.02-2.28.26-.54.25-1.47.17-2.82-.25-.75-.23-2.22.28-2.43.84-.23.64-.01,1.83.29,2.66.17.46.1,1.14.02,1.86-.07.68-.14,1.38-.01,1.85.25.91,2.13,2.69,2.99,3.22l-.37.6Z"></path><path d="m45.75,54.75c-.91-.83-2.09-3.01-2.39-4.4-.22-1-.12-2.51-.05-3.6.02-.39.05-.73.05-.95,0-1,.9-2.12,1.96-2.44.92-.28,1.57-.28,2.49,0,.5.15,1.24-.01,1.75-.25.76-.35,2.07.03,2.58.26.67.31,1.06.68,1.06,1.64,0,.03-.02,2.86-.24,3.19l-.59-.39s-.03.05-.03.05c.07-.23.15-1.93.15-2.86,0-.63-.19-.78-.65-1-.59-.27-1.59-.45-1.99-.26-.61.28-1.52.5-2.25.28-.79-.24-1.29-.24-2.08,0-.84.26-1.47,1.15-1.47,1.77,0,.24-.02.59-.05.99-.07,1.06-.16,2.5.04,3.41.27,1.25,1.37,3.28,2.18,4.03l-.48.52Z"></path><path d="m43.55,49.02c-.79-.36-1.92-3.21-1.92-4.01,0-2.43.1-3.7.33-4.12.3-.56.93-1.72,2.23-2.02.79-.18,1.44-.03,2.02.11.32.08.63.15.92.15s.6-.12.94-.24c.57-.21,1.22-.45,2-.27,1.53.35,2.93,1.03,2.03,5.06l-.69-.15c.83-3.69-.4-3.97-1.49-4.22-.59-.14-1.08.05-1.61.24-.38.14-.77.29-1.18.29-.37,0-.73-.08-1.08-.17-.53-.12-1.08-.25-1.71-.11-.99.23-1.5,1.16-1.77,1.67-.07.13-.24.77-.24,3.78,0,.77,1.14,3.18,1.51,3.37l-.3.64Z"></path><path d="m49.13,55.11c-2.25,0-3.46-3.77-3.73-5.23-.04-.2-.11-.4-.22-.59-.56-1.01-1.47-2.85-1.54-4.12-.78-.8-1.06-2.04-1.29-3.04-.1-.42-.19-.83-.3-1.08l.65-.28c.14.31.23.72.34,1.2.22.95.48,2.14,1.19,2.79l.11.1v.15c0,1.19,1.12,3.31,1.46,3.93.14.26.24.53.29.8.29,1.52,1.41,4.65,3.04,4.65v.7Z"></path><path d="m57.36,64.67c-.81,0-1.55-.68-2.33-1.49-.92-.95-2.1-2.08-2.36-2.33-1.07-.43-2.21-2.74-2.43-3.35-.32-.87-.86-2.05-1.34-2.49l.48-.52c.72.67,1.35,2.29,1.52,2.77.32.89,1.41,2.74,2.06,2.94l.08.02.06.06s1.39,1.32,2.44,2.4c1.08,1.11,1.62,1.42,2.14,1.21,2.01-.79,3.57-1.07,4.31-1.07h.03v.7h-.03c-.68,0-2.13.27-4.05,1.02-.19.08-.38.11-.57.11Z"></path><g><g><path d="m103.97,76.62s-.04,0-.05,0c-.76,0-1.73-.17-2.15-.6-.18-.19-.21-.37-.21-.5,0-.09.02-.33.07-.58l.69.13c-.04.23-.06.43-.06.47.05.09.62.38,1.66.38,1.06.01,1.63-.27,1.69-.39,0,0-.03-.19-.08-.41l.69-.16c.05.24.09.49.09.61-.01.73-1.18,1.05-2.34,1.05Z"></path><path d="m104.05,75.66c-.05,0-.1,0-.15,0-.76-.01-1.48-.13-2.03-.32-.96-.34-1.09-.81-1.09-1.06,0-.07.01-.14.03-.19l.05-.12.65.26-.04.09s.17.19.63.35c.48.17,1.13.27,1.81.28.71.02,1.37-.07,1.86-.24.48-.16.58-.32.58-.35l.66-.23.02.05s.03.12.02.21c0,.28-.19.7-1.06.99-.53.18-1.22.28-1.94.28Z"></path><path d="m106.69,74.61c-.15,0-.29-.09-.33-.24l-1.31-3.96s-.03-.04-.07-.05l-1.65-.26c-.07-.01-.12.03-.13.04l-1.74,4.19c-.07.18-.28.26-.46.19-.18-.07-.26-.28-.19-.46l1.74-4.19c.14-.33.51-.53.89-.47l1.65.26c.3.04.54.25.63.52l1.31,3.96c.06.18-.04.38-.22.44-.04.01-.07.02-.11.02Z"></path></g><g><path d="m93.72,85.57c-.69,0-1.47-.12-1.85-.47-.19-.17-.24-.36-.24-.48,0-.09,0-.33.03-.59l.7.08c-.03.24-.03.44-.03.47.06.09.64.33,1.68.28,1.05-.06,1.61-.37,1.66-.5,0,0-.04-.19-.11-.4l.67-.2c.07.23.12.48.13.6.04.74-1.14,1.14-2.32,1.2-.11,0-.22,0-.33,0Z"></path><path d="m93.56,84.61c-.61,0-1.19-.07-1.65-.2-.97-.27-1.14-.73-1.16-.99,0-.07,0-.14.02-.18l.04-.12.67.21-.02.06c.03.07.18.22.64.34.49.14,1.14.2,1.82.17.69-.03,1.37-.17,1.85-.36.46-.18.56-.36.56-.38l.66-.25h0c.02.07.04.14.04.23.01.23-.1.7-1,1.05-.55.23-1.29.38-2.08.42-.13,0-.26,0-.39,0Zm-2.11-1.2h0s0,0,0,0Z"></path><path d="m91.11,83.67s-.08,0-.11-.02c-.18-.06-.28-.26-.22-.45l.03-.1,1.43-4.19c.11-.34.47-.55.85-.53l1.66.16c.1.01.19.04.27.07.18.09.32.23.39.41l1.56,3.85-.32.14-.33.11-1.55-3.84s-.02-.03-.04-.03c0,0-.02,0-.05-.01l-1.65-.15c-.06,0-.12.03-.12.05l-1.46,4.3c-.05.15-.19.24-.33.24Z"></path></g><g><path d="m81.25,92.87c-.09,0-.18,0-.28,0-.76-.03-1.72-.23-2.12-.68-.17-.19-.2-.38-.19-.51,0-.09.04-.33.09-.58l.69.15c-.05.23-.07.43-.08.47.05.09.61.4,1.64.44,1.05.05,1.64-.21,1.71-.33,0,0-.02-.19-.06-.41l.69-.13c.05.24.08.49.07.61-.04.68-1.07.97-2.16.97Z"></path><path d="m81.42,91.91c-.14,0-.29,0-.44-.01-.75-.04-1.47-.18-2.02-.39-.94-.37-1.06-.85-1.05-1.1,0-.07.02-.14.04-.19l.05-.12.64.28-.04.09h0s.13.18.61.38c.48.19,1.11.31,1.8.35.69.04,1.37-.03,1.87-.18.48-.14.59-.3.59-.33l.67-.21.02.06s.02.12.02.21c-.01.28-.22.69-1.1.95-.47.14-1.05.22-1.67.22Z"></path><path d="m83.83,90.95c-.15,0-.29-.1-.34-.25l-1.17-4.01s-.03-.04-.07-.05l-1.64-.32c-.06-.01-.12.02-.13.04l-1.89,4.13c-.08.18-.29.25-.47.17-.18-.08-.25-.29-.17-.47l1.89-4.13c.15-.32.53-.51.9-.44l1.64.32c.3.06.53.27.61.55l1.17,4c.05.19-.05.38-.24.44-.03,0-.07.01-.1.01Z"></path></g><path d="m104.17,92.77s-.06,0-.09,0l-.7-.05c-.71-.05-1.3-.79-1.36-1.71l-.69-10.18.7-.05.69,10.18c.04.56.36,1.03.71,1.06l.7.05c.11.01.22-.03.32-.12.18-.16.3-.45.32-.77l.59-10.08.7.04-.59,10.08c-.03.52-.23.98-.56,1.26-.22.19-.48.29-.76.29Z"></path><path d="m94.83,100.76s-.03,0-.05,0l-.7-.03c-.72-.03-1.32-.74-1.4-1.67l-.9-10.16.7-.06.9,10.16c.05.55.37,1.01.73,1.03l.7.03c.11,0,.22-.04.32-.13.18-.17.3-.46.31-.79l.38-10.11.7.03-.38,10.11c-.02.52-.21.99-.53,1.28-.23.21-.5.32-.78.32Z"></path><path d="m80.52,104.35s-.04,0-.05,0l-.7-.03c-.71-.02-1.29-.64-1.32-1.4l-.28-7.92.7-.02.28,7.92c.01.4.29.7.64.72l.7.03c.34,0,.66-.28.7-.67l.99-7.88.7.09-.99,7.87c-.09.74-.68,1.29-1.38,1.29Z"></path><path d="m80.72,95.94c-.08,0-.15,0-.23,0-1.01-.04-1.86-.31-2.23-.71-.19-.2-.22-.41-.21-.54.04-.79,1.34-1.1,2.54-1.05,1.01.04,1.86.31,2.23.71.19.2.22.41.21.54h0c-.03.74-1.18,1.06-2.31,1.06Zm-.37-1.61c-1.01,0-1.55.28-1.6.4.04.11.63.46,1.77.5,1.11.04,1.73-.25,1.81-.38-.07-.14-.66-.47-1.77-.51-.07,0-.15,0-.22,0Z"></path><path d="m103.76,81.86c-1.26,0-2.54-.42-2.54-1.21s1.28-1.21,2.54-1.21,2.54.42,2.54,1.21-1.28,1.21-2.54,1.21Zm-1.83-1.21c.02.15.69.51,1.83.51s1.81-.36,1.83-.51c-.02-.15-.69-.51-1.83-.51s-1.81.36-1.83.51Z"></path><path d="m94.18,89.91c-1.26,0-2.54-.42-2.54-1.21s1.28-1.21,2.54-1.21,2.54.42,2.54,1.21-1.28,1.21-2.54,1.21Zm-1.83-1.21c.02.15.69.51,1.83.51s1.81-.36,1.83-.51c-.02-.15-.69-.51-1.83-.51s-1.81.36-1.83.51Z"></path></g><g><path d="m48.38,76.62c-1.17,0-2.33-.32-2.34-1.05,0-.12.04-.37.09-.61l.69.16c-.05.22-.07.4-.07.44.06.08.64.35,1.69.35,1.04,0,1.6-.29,1.66-.41,0,0-.02-.21-.07-.44l.69-.13c.05.25.07.49.07.59,0,.12-.03.31-.21.5-.42.44-1.38.6-2.15.6-.02,0-.04,0-.05,0Z"></path><path d="m48.31,75.66c-.73,0-1.41-.1-1.95-.28-.87-.28-1.05-.7-1.06-1,0-.07.01-.14.02-.19v-.04s.68.22.68.22c0,.02.1.18.58.34.5.17,1.16.26,1.87.24.68-.01,1.33-.11,1.81-.28.5-.17.62-.36.62-.39l-.03-.06.65-.26.04.09c.03.08.04.15.04.23,0,.24-.13.71-1.09,1.04-.55.19-1.27.31-2.03.32-.05,0-.1,0-.15,0Z"></path><path d="m45.66,74.61s-.07,0-.11-.02c-.18-.06-.28-.26-.22-.44l1.31-3.96c.09-.28.33-.48.63-.52l1.64-.26c.38-.06.75.14.89.47l1.74,4.19c.07.18-.01.39-.19.46-.18.07-.39-.01-.46-.19l-1.74-4.19s-.06-.05-.13-.04l-1.64.26s-.07.03-.07.05l-1.31,3.96c-.05.15-.19.24-.33.24Z"></path></g><g><path d="m58.63,85.57c-.11,0-.22,0-.33,0-1.18-.07-2.36-.46-2.32-1.2,0-.12.06-.37.13-.6l.67.2c-.06.22-.1.4-.1.44.05.09.61.4,1.66.46,1.04.06,1.62-.19,1.69-.3,0,0,0-.21-.04-.44l.7-.08c.03.25.04.5.03.59,0,.12-.05.31-.24.48-.39.35-1.16.47-1.85.47Z"></path><path d="m58.8,84.61c-.13,0-.27,0-.4,0-.78-.04-1.52-.18-2.08-.42-.85-.34-1.01-.77-.99-1.07,0-.07.02-.14.04-.19v-.04s.66.28.66.28c0,.01.1.19.56.37.48.2,1.15.33,1.85.36.68.03,1.33-.03,1.82-.16.47-.13.63-.3.64-.35l-.02-.06.67-.22.03.09c.02.08.03.15.02.24-.01.23-.18.7-1.15.97-.46.13-1.04.2-1.64.2Z"></path><path d="m61.24,83.67c-.15,0-.28-.09-.33-.24l-1.46-4.29s-.06-.06-.13-.05l-1.65.16s-.07.02-.08.04l-1.56,3.87c-.07.18-.28.27-.46.19-.18-.07-.27-.28-.19-.46l1.56-3.87c.11-.27.36-.45.67-.48l1.65-.16c.38-.04.74.19.86.53l1.46,4.29c.06.18-.04.38-.22.45-.04.01-.08.02-.11.02Z"></path></g><g><path d="m71.1,92.87c-1.09,0-2.12-.29-2.16-.97,0-.12.02-.38.07-.61l.69.13c-.04.22-.06.4-.06.44.06.08.65.34,1.7.29,1.04-.05,1.59-.35,1.65-.47,0,0-.03-.21-.08-.44l.69-.15c.06.25.09.49.09.58,0,.12-.02.31-.19.5-.4.45-1.36.65-2.12.68-.09,0-.18,0-.28,0Z"></path><path d="m70.93,91.91c-.62,0-1.21-.07-1.68-.22-.88-.25-1.08-.67-1.09-.97,0-.07,0-.14.02-.19v-.04s.68.21.68.21c0,.01.11.17.59.31.5.15,1.18.21,1.87.18.68-.04,1.32-.16,1.8-.35.45-.18.6-.36.6-.41l-.03-.06.64-.28.04.09c.03.08.05.15.05.23.01.23-.11.71-1.05,1.08-.54.21-1.26.35-2.02.39-.15,0-.29.01-.43.01Z"></path><path d="m68.52,90.95s-.07,0-.1-.01c-.19-.05-.29-.25-.24-.44l1.17-4.01c.08-.28.32-.49.62-.54l1.63-.32c.38-.07.76.11.91.44l1.89,4.12c.08.18,0,.39-.17.47-.18.08-.39,0-.47-.17l-1.89-4.13s-.06-.05-.13-.04l-1.63.32s-.07.03-.07.05l-1.17,4.01c-.04.15-.19.25-.34.25Z"></path></g><path d="m48.19,92.77c-.27,0-.54-.1-.76-.29-.33-.28-.53-.74-.56-1.26l-.59-10.08.7-.04.59,10.08c.02.33.14.62.32.77.1.09.21.13.32.12l.7-.05c.36-.03.68-.5.71-1.06l.69-10.18.7.05-.69,10.18c-.06.92-.65,1.66-1.36,1.71l-.7.05s-.06,0-.09,0Z"></path><path d="m57.52,100.76c-.29,0-.56-.11-.78-.32-.32-.3-.51-.76-.53-1.28l-.38-10.11.7-.03.38,10.11c.01.33.13.63.31.79.1.09.21.13.32.13l.7-.03c.35-.01.68-.47.73-1.03l.9-10.16.7.06-.9,10.16c-.08.92-.68,1.64-1.4,1.67l-.7.03s-.03,0-.05,0Z"></path><path d="m71.83,104.35c-.7,0-1.28-.54-1.38-1.29l-.99-7.87.7-.09.99,7.87c.05.39.36.68.7.67l.7-.03c.35-.01.63-.32.64-.72l.28-7.92.7.02-.28,7.92c-.03.76-.61,1.37-1.32,1.4l-.7.03s-.04,0-.05,0Z"></path><path d="m71.63,95.94c-1.13,0-2.28-.32-2.31-1.06,0-.13.03-.33.21-.54.37-.4,1.22-.67,2.23-.71,1.2-.05,2.51.26,2.54,1.05,0,.13-.03.33-.21.54-.37.4-1.22.67-2.23.71-.08,0-.15,0-.23,0Zm-1.61-1.09c.08.14.7.42,1.81.38,1.14-.04,1.73-.39,1.77-.53-.05-.11-.67-.41-1.82-.37-1.1.04-1.69.37-1.77.51Z"></path><path d="m48.59,81.86c-1.26,0-2.54-.42-2.54-1.21s1.28-1.21,2.54-1.21,2.54.42,2.54,1.21-1.28,1.21-2.54,1.21Zm0-1.72c-1.14,0-1.81.36-1.83.51.02.15.69.51,1.83.51s1.81-.36,1.83-.51c-.02-.15-.69-.51-1.83-.51Z"></path><path d="m58.17,89.91c-1.26,0-2.54-.42-2.54-1.21s1.28-1.21,2.54-1.21,2.54.42,2.54,1.21-1.28,1.21-2.54,1.21Zm0-1.72c-1.14,0-1.81.36-1.83.51.02.15.69.51,1.83.51s1.81-.36,1.83-.51c-.02-.15-.69-.51-1.83-.51Z"></path></g></g></g></svg>