<svg xmlns="http://www.w3.org/2000/svg" id="Layer_2" viewBox="0 0 150 150"><defs><style>.cls-1{fill:none;}</style></defs><g id="Layer_1-2"><g><rect class="cls-1" width="150" height="150"></rect><g><path d="m67.33,81.22c-.6,0-4.1-.92-10.68-2.7-1.41-.38-2.52-.68-2.94-.79-1.58-.4-9.54-3.11-10.66-3.6l.28-.65c1.07.47,9.04,3.18,10.55,3.56.43.11,1.54.41,2.96.79,3.45.93,9.88,2.67,10.47,2.67h0l.06.7s-.02,0-.04,0Z"></path><path d="m64.75,98.3c-.18-1.26-.31-2.4-.43-3.41-.35-2.95-.6-5.08-1.55-6.7-1.32-2.25-1.51-2.51-2.8-2.75-.07-.02-.13-.03-.21-.06h-.01c-.35-.08-1.02-.26-1.86-.5-1.17-.33-2.35-.68-3.5-1.03-.61-.17-1.3-.37-2.09-.62-1.12-.32-2.3-.68-3.43-1.03-.7-.21-1.41-.42-2.09-.63-1.97-.59-3.82-1.15-5.2-1.58-.42-.13-.81-.24-1.15-.35-.23-.07-.44-.14-.63-.19.41.77,1.04,1.98,1.44,2.99.31.71.47,1.89.49,3.62v.1h-.7v-.1c-.02-1.61-.16-2.73-.44-3.35-.45-1.1-1.16-2.45-1.55-3.18l-.07-.14c-.1-.15-.09-.4.04-.57.14-.18.37-.24.59-.16.23.06.59.17,1.03.31.34.1.72.22,1.15.35,1.38.42,3.23.99,5.2,1.58.68.21,1.38.42,2.08.63,1.13.35,2.31.7,3.43,1.03.79.25,1.47.45,2.08.62,1.16.35,2.33.7,3.5,1.03.8.23,1.44.41,1.77.48h.02l.07.02c.07.02.12.04.17.05,1.57.29,1.91.79,3.26,3.08,1.03,1.75,1.28,3.94,1.64,6.97.12,1.01.25,2.15.43,3.4l-.7.1Zm-25.36-18.97s0,0,.01,0c0,0,0,0-.01,0Zm.19-.29l.02.03s0-.02-.02-.03Z"></path><path d="m65.44,98.28l-.7-.06c.09-1.1.1-2.84.11-4.53.01-2.12.03-4.31.19-5.48.25-1.79,1.04-4.6,1.07-4.72l.68.19s-.81,2.88-1.05,4.62c-.16,1.13-.17,3.29-.18,5.39-.01,1.78-.02,3.45-.11,4.58Z"></path><g><path d="m75.7,81.06s-.05,0-.08,0c-.04,0-.08,0-.13-.02l.12-.69s.05,0,.08,0c.04,0,.08,0,.13.02l-.12.69Z"></path><path d="m82.22,100c-3.37,0-7.16-.21-11.47-.61-11-1.02-20-3.4-26.76-7.06-1.71-.95-2.85-2.76-2.97-4.72,0-.06-.04-.44-.03-.64l.04-.82v-.08s.7,0,.7,0v.1l-.04.85c0,.11.01.38.03.54.11,1.75,1.11,3.34,2.61,4.17,6.67,3.61,15.58,5.96,26.49,6.97,16.41,1.54,25.16.25,32.29-4.77.94-.67,1.66-1.52,2.15-2.54.35-.71,3.37-7.1,3.52-11.87l.7.02c-.15,4.92-3.23,11.43-3.58,12.16-.54,1.13-1.34,2.07-2.38,2.81-5.39,3.8-11.67,5.51-21.3,5.51Z"></path><path d="m67.87,80.14c-3.38-.28-20.39-5.48-22.39-6.29-.77-.31-1.63-.24-2.29.18-.6.39-.96,1-.99,1.73l-.17,3.9-.7-.03.17-3.9c.04-.95.52-1.79,1.31-2.29.85-.55,1.95-.64,2.93-.24,2.14.87,19.05,5.99,22.18,6.24l-.06.7Z"></path><path d="m99.86,77.94c-6.63-3.43-20.31-7.71-32.53-10.19-.98-.2-1.69-1.07-1.69-2.07l-.38-10.67c-.02-.53.21-1.03.62-1.37.41-.34.95-.46,1.47-.32l2.56.64-.17.68-2.56-.64c-.3-.07-.61,0-.85.19-.24.2-.37.49-.36.8l.38,10.68c0,.68.48,1.26,1.13,1.39,10.53,2.13,25.15,6.34,32.71,10.25l-.32.62Z"></path><path d="m110.31,67.37l-.68-.18c.06-.23.09-.39.09-.51,0-1.06-.82-2.48-1.55-3.1-.78-.65-1.67-.98-2.16-.79l-.06.02h-.06v-.37s-.12-.31-.12-.31c.9-.34,2.11.28,2.86.91.87.73,1.8,2.36,1.8,3.64,0,.19-.03.4-.11.69Z"></path><path d="m104.19,73.9c-.35,0-.75-.15-1.13-.44-.51-.38-1.04-1.05-1.08-1.7-.04-.66.16-1.67.59-3.01l.67.22c-.51,1.55-.58,2.35-.56,2.75.02.35.36.85.8,1.18.3.23.6.33.8.29.59-.13,1.84-.93,2.82-1.67l.42.56c-.35.26-2.13,1.58-3.09,1.8-.08.02-.16.03-.25.03Z"></path><path d="m104.95,64.07l-.53-.46,1.51-1.76c.09-.13.11-.28.06-.42-.08-.25-.35-.48-.72-.62l-3.58-.62-.32-.08c-.91-.26-1.37-.28-1.73.26l-.83,1.34-.6-.37.84-1.34c.7-1.07,1.83-.75,2.5-.56l.29.07,3.64.64c.59.21,1.02.6,1.18,1.07.12.36.06.73-.15,1.05l-.02.03-1.53,1.78Z"></path><path d="m100.39,70.66c-.16,0-.32-.02-.48-.05-1.85-.35-3.01-2.71-2.81-5.72l.7.05c-.17,2.6.77,4.7,2.24,4.98.86.17,1.81-.3,2.59-1.28.74-.91,1.3-2.2,1.56-3.63.17-.95.15-1.55-.06-1.81-.2-.24-.67-.23-1.26-.23-.44,0-.94,0-1.46-.09-.51-.1-.98-.28-1.4-.45-.57-.23-1.06-.42-1.36-.26l-.33-.62c.59-.32,1.26-.06,1.96.22.4.16.82.33,1.27.41.45.09.9.08,1.33.08.72,0,1.39-.01,1.81.48.37.44.44,1.18.22,2.39-.29,1.56-.87,2.93-1.7,3.94-.82,1.02-1.81,1.57-2.79,1.57Z"></path><path d="m98.82,61.14l-.51-.48,1.64-1.76c.09-.13.11-.26.06-.4-.09-.26-.38-.49-.8-.63l-3.88-.64c-.1-.01-.22-.04-.34-.07-.63-.17-1.13-.25-1.5-.08-.16.08-.3.19-.41.35l-1.38,2.05-.58-.4.79-1.17.58-.88c.2-.27.42-.46.7-.59.63-.28,1.34-.13,1.97.04.08.02.17.04.26.05l3.97.65c.65.21,1.12.6,1.28,1.09.12.36.06.73-.17,1.05l-.03.03-1.65,1.77Z"></path><path d="m93.92,67.86c-.17,0-.34-.01-.51-.04-1.99-.35-3.24-2.7-3.03-5.71.03-.4.08-.81.15-1.21.17-.87.4-1.44.71-1.79.68-.79,1.61-.45,2.5-.12.44.16.9.33,1.39.41.5.09,1,.08,1.44.08.8,0,1.48-.01,1.92.46.31.34.43.84.36,1.6,0,.08-.01.17-.02.26,0,.04-.01.08-.01.12-.03.15-.05.29-.08.43-.19,1-.52,1.92-.99,2.75-.98,1.75-2.42,2.77-3.84,2.77Zm-1.61-8.54c-.22,0-.38.07-.53.24-.22.26-.41.75-.55,1.46-.07.37-.12.75-.14,1.13-.19,2.64.82,4.68,2.45,4.97,1.28.23,2.66-.69,3.61-2.38.43-.77.74-1.62.91-2.53.02-.14.05-.28.07-.41,0-.01,0-.06.01-.11,0-.06.02-.12.02-.18v-.03c.05-.53-.01-.89-.18-1.07-.23-.25-.77-.25-1.4-.24-.47,0-1.01,0-1.57-.09-.55-.1-1.06-.28-1.51-.45-.54-.2-.91-.32-1.2-.32Z"></path><polygon points="91.83 59.05 91.31 58.57 91.94 57.91 92.43 58.4 91.83 59.05"></polygon><path d="m84.9,57.15l-.29-.19h-.36s0-.1,0-.1l.06-.1,1.18-1.81c.2-.29.43-.48.72-.6.61-.27,1.3-.13,1.95.03.12.04.19.06.27.06l3.98.64c.96.32,1.5,1.06,1.27,1.78l-.67-.21c.1-.32-.24-.71-.8-.9l-3.88-.62c-.11-.01-.23-.04-.38-.09-.5-.13-1.06-.24-1.47-.06-.16.07-.29.18-.41.34l-1.17,1.8Z"></path><path d="m86.91,65.63c-.16,0-.33-.01-.49-.04-1.95-.35-3.2-2.63-3.04-5.54.01-.39.06-.84.17-1.39.17-.88.4-1.45.73-1.81.67-.76,1.59-.42,2.48-.09.44.16.9.33,1.39.41.49.09.97.08,1.44.08.79,0,1.47-.02,1.91.45.3.31.42.79.38,1.46,0,.07,0,.15-.02.25l-.69-.12c0-.05,0-.1,0-.14.03-.49-.04-.8-.19-.96-.23-.24-.77-.24-1.39-.23-.47,0-1.01.01-1.56-.09-.55-.1-1.06-.28-1.51-.45-.89-.33-1.38-.48-1.72-.1-.24.26-.42.74-.56,1.47-.09.51-.14.92-.15,1.29-.14,2.56.87,4.54,2.46,4.82,1.39.24,2.95-.93,3.87-2.91l.64.3c-.98,2.09-2.56,3.35-4.14,3.35Z"></path><rect x="81.61" y="83.52" width=".31" height=".7" transform="translate(-34.38 98.98) rotate(-53.14)"></rect><path d="m74.5,83.4l-.62-.33.1-.19,1.05-2.06c.07-.13.15-.25.26-.37.1-.13.25-.25.41-.33.57-.34,1.25-.29,1.96-.2.09,0,.19.02.29.02l4.12.18c.84.16,1.42.64,1.53,1.25l-.69.12c-.05-.3-.42-.56-.94-.67l-4.03-.17c-.11-.01-.23-.01-.36-.03-.59-.08-1.15-.13-1.52.11l-.05.02c-.06.03-.13.08-.17.14-.08.1-.14.17-.18.25l-1.14,2.25Z"></path><path d="m77.42,91.53c-.05,0-.11,0-.16,0-.85-.05-1.64-.45-2.28-1.18-1.09-1.24-1.65-3.3-1.49-5.51.09-1.19.35-1.92.84-2.27.59-.43,1.36-.25,2.18-.06.47.11.95.23,1.47.25.52.03,1.03-.04,1.48-.1.8-.1,1.55-.2,2.06.27.43.41.58,1.14.5,2.37h0c-.26,3.54-2.26,6.23-4.59,6.23Zm-2.18-8.54c-.2,0-.36.04-.49.13-.3.22-.49.81-.56,1.76-.15,2.03.34,3.9,1.31,5,.51.58,1.13.91,1.79.94,1.99.12,3.78-2.4,4.01-5.57.07-.96-.02-1.57-.28-1.81-.26-.25-.8-.18-1.48-.09-.48.06-1.03.13-1.61.1-.57-.03-1.11-.16-1.59-.27-.43-.1-.81-.19-1.11-.19Z"></path><path d="m74.57,82.92l-.57-.41,1.45-1.99c.07-.14.08-.28.02-.42-.12-.25-.46-.47-.9-.56l-4.03-.16c-.12,0-.24-.02-.36-.04-1.03-.14-1.58-.09-1.92.52l-1.14,2.25-.63-.32,1.15-2.26c.64-1.15,1.84-1,2.63-.89.1.01.2.03.3.03l4.11.17c.69.13,1.21.48,1.43.95.16.34.15.72-.05,1.07l-.02.04-1.47,2.01Z"></path><path d="m70.03,90.26c-.05,0-.11,0-.16,0-.85-.05-1.64-.46-2.28-1.19-1.09-1.24-1.65-3.3-1.49-5.51.09-1.19.36-1.92.85-2.28.59-.43,1.37-.25,2.19-.06.47.11.95.23,1.47.26.51.03,1-.04,1.47-.1.8-.1,1.49-.19,2,.22.34.28.52.74.57,1.43v.08s-.7,0-.7,0v-.06c-.03-.45-.14-.76-.31-.91-.27-.22-.82-.15-1.46-.07-.48.06-1.03.13-1.6.1-.58-.03-1.11-.16-1.59-.27-.71-.17-1.28-.3-1.61-.06-.3.22-.49.81-.56,1.76-.14,2.03.35,3.89,1.32,5,.51.58,1.13.91,1.79.95,1.46.08,2.91-1.3,3.59-3.42l.67.22c-.77,2.39-2.38,3.91-4.14,3.91Z"></path><path d="m79.91,63.54c-.17,0-.33-.01-.49-.04-1.94-.35-3.19-2.62-3.04-5.53.01-.41.06-.84.17-1.4.17-.84.4-1.43.72-1.79.68-.79,1.61-.45,2.51-.11.44.16.89.33,1.37.42.49.09,1,.08,1.44.07.79-.01,1.47-.02,1.91.44.29.31.42.77.39,1.43v.2l-.09.1c-.23.25-.41.73-.55,1.47-.09.51-.14.92-.15,1.29v.07s-.03.07-.03.07c-.97,2.07-2.56,3.32-4.13,3.32Zm-1.59-8.55c-.22,0-.38.07-.52.24-.16.19-.39.59-.56,1.47-.1.52-.14.92-.15,1.3-.13,2.55.88,4.52,2.46,4.81,1.4.24,2.9-.87,3.84-2.82.02-.38.07-.8.16-1.32.15-.8.36-1.34.64-1.71.02-.43-.05-.72-.19-.87-.23-.24-.77-.24-1.39-.23-.48,0-1.02.01-1.57-.09-.55-.1-1.05-.29-1.49-.45-.55-.2-.93-.33-1.21-.33Z"></path><path d="m70.83,53.08l-.59-.38,1.26-1.94c.76-1.06,1.91-.75,2.66-.55l.31.07,3.94.64c.97.32,1.5,1.05,1.27,1.77l-.67-.21c.1-.32-.23-.69-.8-.88l-4.22-.7c-.99-.26-1.52-.28-1.92.27l-1.25,1.93Z"></path><path d="m72.94,61.43c-.17,0-.34-.01-.51-.04-.82-.14-1.54-.63-2.08-1.41-.92-1.33-1.21-3.39-.79-5.51.22-1.16.56-1.81,1.08-2.11.62-.35,1.35-.09,2.12.19.44.16.9.33,1.4.42.5.09,1.01.09,1.45.08.78,0,1.46-.01,1.9.45.29.3.41.76.38,1.4,0,.06,0,.11,0,.14l-.69-.03s.01.05.03.08l-.04-.08v-.09c.03-.45-.03-.76-.18-.92-.23-.24-.76-.24-1.38-.23-.48,0-1.02,0-1.58-.09-.55-.1-1.07-.28-1.52-.45-.66-.24-1.19-.43-1.53-.24-.31.18-.56.73-.74,1.63-.38,1.94-.13,3.8.68,4.98.43.62.99,1.01,1.62,1.12,1.4.25,2.91-.87,3.86-2.86l.63.3c-.99,2.06-2.56,3.3-4.11,3.3Zm4.25-6.51s0,.01,0,.02v-.02Z"></path><path d="m108.64,80c-.28,0-.56-.08-.79-.24-.14-.1-.26-.27-.42-.61l.63-.3c.13.27.18.33.19.34.19.13.49.14.69.02.08-.04.14-.1.19-.17.23-.41,1.4-5.45,1.23-7.36-.11-1.39-.42-3.02-.63-3.89-.34.58-.84,1.53-1.18,2.17-.43.82-.68,1.29-.79,1.44-.04.07-.1.36-.12.47-.03.21-.12.78-.12.78l-.7-.1s.09-.58.12-.81c.08-.41.14-.6.23-.74.08-.12.42-.76.75-1.37,1.55-2.92,1.61-2.93,1.86-2.97l.18-.03.14.13c.07.07.12.17.2.4.23.78.63,2.81.77,4.46.18,2.04-.98,7.22-1.35,7.81-.13.18-.26.3-.42.39-.2.12-.43.18-.66.18Z"></path><path d="m104.45,85.37c-.24,0-.46-.09-.64-.27-.21-.2-.5-.68-.76-2.53l.7-.1c.24,1.66.47,2.04.56,2.13.06.06.11.08.18.07.43-.05,1.19-.91,1.65-1.67.3-.5.77-1.99,1.25-3.97.01-.05.02-.08.03-.11.19-.91.4-2.96.55-4.47.09-.92.17-1.66.22-1.96.06-.36-.01-.47-.02-.48,0,0-.02,0-.04.01-.06.04-.26.29-.4.47-.08.11-.18.22-.27.34-.28.34-.55.62-.8.83-.7.57-3.18,2.44-3.29,2.52l-.42-.56s2.58-1.95,3.27-2.51c.21-.17.45-.42.7-.73.09-.11.18-.22.26-.33.27-.34.45-.56.64-.66.27-.13.56-.1.77.06.2.15.41.47.28,1.16-.05.28-.12,1.04-.21,1.91-.16,1.61-.37,3.62-.57,4.56v.04s-.02.07-.04.11c-.29,1.2-.86,3.36-1.33,4.14-.11.19-1.15,1.88-2.17,2.01-.04,0-.08,0-.12,0Z"></path><path d="m99.11,88.46c-.73,0-1.48-.45-1.93-1.18-.19-.31-.38-.93-.61-1.9l-.02-.1.03-.09c.13-.39.22-.8.27-1.22.12-.99.52-3.96.65-4.9l-.18-.3.3-.19c.29-.17.68-.39,1.12-.65.34-.19.71-.41,1.09-.62.53-.29,1.07-.59,1.59-.87.6-.33,1.15-.63,1.56-.86.35-.19.77-.21,1.14-.04.35.16.6.47.68.84.02.08.02.16.02.21,0,.33-.2,1.54-.44,2.97-.05.29-.09.54-.12.72-.05.31-.21,1.15-.54,2.33-.25.9-.48,1.65-.74,2.35-.94,2.61-2.89,3.29-3.46,3.44-.14.03-.28.05-.42.05Zm-1.83-3.15c.26,1.09.43,1.47.51,1.61.37.6,1.03.95,1.57.81.49-.12,2.15-.71,2.97-2.99.25-.69.48-1.42.72-2.3.32-1.15.47-1.96.52-2.26.03-.18.07-.43.12-.72.16-.96.43-2.56.43-2.86,0-.01,0-.03,0-.04-.04-.17-.14-.3-.3-.37-.16-.07-.35-.07-.5.02-.41.23-.96.53-1.56.86-.51.28-1.06.58-1.58.86-.37.22-.74.43-1.08.62-.33.19-.64.37-.89.51,0,.03,0,.06,0,.1-.12.88-.53,3.93-.65,4.9-.05.43-.14.85-.27,1.25Zm.22-6.26s0,0,0,0c0,0,0,0,0,0Z"></path><path d="m93,90.52c-.6,0-1.18-.24-1.66-.7-1.07-1.02-1.54-2.84-1.51-4.11,0-.32,0-.69.01-1.08.03-3.3.07-4.17.2-4.41.24-.49.98-1.18,2.04-1.02.89.12,4.34-.56,4.73-.69.19-.06.43-.11.65-.13.27-.03.52.11.65.34l-.61.34c-.15.03-.33.07-.47.11-.45.15-3.99.87-5.05.72-.76-.11-1.21.44-1.31.64-.09.3-.11,2.68-.13,4.11,0,.39,0,.76-.01,1.08-.02,1.16.41,2.76,1.29,3.59.39.37.83.54,1.3.5,1.35-.09,2.82-2.42,3.46-4.62l.67.2c-.58,1.99-2.14,4.99-4.08,5.12-.06,0-.12,0-.17,0Z"></path><path d="m85.44,92.02c-.29,0-.58-.04-.88-.12-.7-.2-1.68-.76-2.36-2.29s-.9-3.26-.93-4.38h0c-.03-1.12.37-2.24,1.22-3.41,1.73-2.39,4.11-3.06,5.62-2.9.98.1,1.71.53,2.01,1.18.8,1.76.27,5.04-.12,6.53-.71,2.68-1.98,4.32-2.94,4.96-.37.25-.96.44-1.61.44Zm-3.47-6.81c.03,1.06.2,2.63.87,4.11.46,1.03,1.11,1.66,1.92,1.9.8.23,1.58,0,1.9-.23.81-.54,2-2.06,2.65-4.55.43-1.63.83-4.59.16-6.06-.19-.41-.72-.7-1.44-.77-1.33-.13-3.43.47-4.98,2.62-.76,1.05-1.11,2.02-1.09,2.98h0Z"></path><path d="m108.58,67.26c-.12-.12-.27-.29-.43-.47-.65-.73-1.64-1.84-2.46-2.11l.22-.67c1,.33,2.06,1.52,2.76,2.31.16.18.3.34.41.45l-.51.49Z"></path><path d="m77.9,54.89l-.57-.41,1.19-1.63c.18-.26.41-.46.69-.59.6-.27,1.24-.14,1.96.04l.31.07,3.93.64c.99.33,1.51,1.06,1.27,1.79l-.67-.22c.11-.33-.22-.69-.8-.89l-4.22-.7c-.59-.15-1.11-.26-1.5-.08-.16.08-.29.19-.41.36l-1.2,1.63Z"></path></g><g><path d="m59.98,84.8c-.17-.04-.42-.1-.73-.18.31.08.56.15.73.18h0Z"></path><path d="m53.96,77.16c-1.59-.4-9.55-3.12-10.61-3.58l-.14.02c-.73.41-1.15.96-1.19,1.92l-.17,3.9c1.38.42,3.23.99,5.2,1.58.68.21,1.38.42,2.08.63-.7-.21-1.41-.42-2.08-.63.01-.07.04-.13.07-.18.28-.54.94-.73,1.48-.45.48.24.69.77.54,1.27,1.16.35,2.31.7,3.44,1.03.08-.51.54-.89,1.07-.89.61,0,1.1.49,1.1,1.1,0,.14-.03.28-.08.41-.66-.18-1.37-.39-2.08-.62.72.23,1.42.44,2.08.62,1.34.41,2.55.76,3.49,1.03.42.12.8.23,1.11.31-.31-.08-.68-.19-1.11-.31-.03-.08-.04-.17-.04-.25,0-.59.48-1.08,1.08-1.08s1.1.49,1.1,1.08c0,.3-.11.55-.3.75h0c.08.03.14.04.2.06,1.45.27,1.72.66,3.04,2.92,1.32,2.25,1.32,5.29,2.03,10.22.2-2.49,0-7.9.3-9.98.19-1.35.9-4.25,1.23-5.59.12-.47.71-1.79.71-1.79-.66.07-11.95-3.07-13.54-3.47Zm-7.19,1.91c-.6,0-1.09-.49-1.09-1.09s.49-1.09,1.09-1.09,1.09.49,1.09,1.09-.49,1.09-1.09,1.09Zm5.55,1.94c-.6,0-1.09-.49-1.09-1.09s.49-1.09,1.09-1.09,1.09.49,1.09,1.09-.49,1.09-1.09,1.09Zm5.55,1.54c-.6,0-1.09-.49-1.09-1.09s.49-1.09,1.09-1.09,1.09.49,1.09,1.09-.49,1.09-1.09,1.09Zm5.55,1.19c-.6,0-1.09-.49-1.09-1.09s.49-1.09,1.09-1.09,1.09.49,1.09,1.09-.49,1.09-1.09,1.09Z"></path></g></g></g></g></svg>