<svg xmlns="http://www.w3.org/2000/svg" id="Layer_2" viewBox="0 0 150 150"><defs><style>.cls-1{fill:none;}</style></defs><g id="Layer_1-2"><g><rect class="cls-1" width="150" height="150"></rect><g><path d="m74.66,81.06s-.05,0-.08,0c-.04,0-.08,0-.13-.02l.12-.71s.05,0,.08,0c.04,0,.09,0,.13.02l-.12.71Z"></path><path d="m81.17,100c-3.37,0-7.15-.21-11.45-.61-11.03-1.03-20.03-3.41-26.75-7.07-1.92-1.05-3.1-3.15-3.01-5.36l.5-11.23c.05-1.01.59-1.92,1.46-2.44.86-.51,1.91-.55,2.81-.1,1.19.59,2.49,1.15,3.86,1.67l-.26.67c-1.4-.53-2.72-1.1-3.92-1.7-.69-.34-1.46-.31-2.13.08-.66.39-1.08,1.08-1.11,1.85l-.5,11.22c-.08,1.93.95,3.78,2.63,4.7,6.64,3.61,15.55,5.96,26.47,6.98,16.4,1.54,25.14.25,32.27-4.77.92-.65,1.66-1.53,2.15-2.54.34-.72,3.38-7.16,3.51-11.87l.72.02c-.14,4.75-3.01,10.96-3.58,12.16-.54,1.12-1.36,2.09-2.38,2.81-5.4,3.8-11.67,5.51-21.3,5.51Z"></path><path d="m66.82,80.15c-3.46-.5-6.79-1.16-9.92-1.94l.17-.7c3.1.78,6.41,1.43,9.85,1.93l-.1.71Z"></path><polygon points="53.8 77.36 53.94 77.04 53.93 77.04 53.94 77.04 53.93 77.04 53.68 76.78 54.08 76.7 54.3 77.04 53.95 77.04 54.19 77.29 53.94 77.05 53.8 77.36"></polygon><path d="m98.8,77.94c-6.62-3.42-20.3-7.71-32.52-10.18-.99-.2-1.7-1.07-1.7-2.07l-.38-10.66c-.02-.54.21-1.04.63-1.37.42-.34.95-.46,1.47-.33l2.56.64-.17.7-2.56-.64c-.3-.07-.61,0-.85.19s-.37.48-.36.79l.38,10.67c0,.67.47,1.25,1.12,1.38,10.53,2.13,25.14,6.34,32.7,10.25l-.33.64Z"></path><path d="m109.27,67.37l-.7-.18c.06-.22.09-.39.09-.51,0-1.03-.82-2.48-1.55-3.09-.78-.65-1.67-.97-2.15-.79l-.06.02h-.07v-.38s-.13-.32-.13-.32c.9-.34,2.11.28,2.87.91.87.73,1.8,2.37,1.8,3.64,0,.19-.03.41-.11.7Z"></path><path d="m103.14,73.91c-.35,0-.75-.15-1.14-.44-.51-.38-1.04-1.06-1.08-1.7-.04-.66.16-1.68.59-3.01l.68.22c-.51,1.55-.58,2.35-.56,2.74.02.35.36.84.79,1.17.3.23.6.33.79.29.59-.13,1.84-.93,2.81-1.67l.43.57c-.35.26-2.13,1.58-3.09,1.8-.08.02-.16.03-.25.03Z"></path><path d="m103.91,64.07l-.55-.47,1.51-1.76c.08-.13.1-.27.06-.41-.08-.25-.35-.48-.71-.61l-3.58-.62-.32-.08c-.91-.26-1.37-.28-1.72.25l-.83,1.34-.61-.38.84-1.34c.71-1.07,1.84-.75,2.51-.56l.28.07,3.64.64c.6.21,1.03.6,1.18,1.07.12.36.06.74-.15,1.06l-.02.03-1.53,1.78Z"></path><path d="m99.34,70.67c-.16,0-.32-.02-.48-.05-1.86-.36-3.02-2.71-2.82-5.72l.72.05c-.17,2.6.77,4.69,2.23,4.97.86.17,1.8-.3,2.58-1.28.74-.91,1.29-2.2,1.55-3.62.17-.94.15-1.55-.06-1.8-.2-.24-.67-.23-1.26-.23-.44,0-.94,0-1.46-.09-.51-.1-.98-.28-1.4-.45-.57-.22-1.05-.42-1.35-.26l-.34-.63c.6-.32,1.26-.06,1.96.22.4.16.82.33,1.27.41.45.09.9.09,1.32.08.72,0,1.4-.01,1.81.48.37.44.44,1.18.22,2.39-.29,1.56-.87,2.93-1.7,3.95-.82,1.02-1.82,1.58-2.8,1.58Z"></path><path d="m97.77,61.15l-.53-.49,1.63-1.76c.09-.13.11-.26.06-.39-.08-.25-.39-.49-.79-.62l-3.88-.64c-.1-.01-.22-.04-.34-.07-.63-.17-1.12-.25-1.49-.08-.16.08-.29.19-.41.35l-1.38,2.05-.59-.41.79-1.17.58-.88c.2-.27.42-.46.7-.6.63-.28,1.35-.13,1.97.04.08.02.17.04.26.05l3.97.65c.65.21,1.12.6,1.28,1.09.12.36.06.73-.17,1.05l-.03.03-1.65,1.77Z"></path><path d="m92.87,67.87c-.17,0-.34-.01-.51-.04-2-.35-3.24-2.7-3.03-5.71.03-.4.08-.81.15-1.21.17-.87.4-1.44.71-1.8.69-.79,1.61-.45,2.51-.12.44.16.89.33,1.39.41.5.09.98.08,1.44.08.8,0,1.49-.01,1.93.47.31.34.43.85.36,1.6,0,.08-.01.17-.02.26,0,.04-.01.08-.01.12-.03.15-.05.29-.08.43-.19,1-.52,1.92-.99,2.75-.99,1.75-2.42,2.77-3.84,2.77Zm-1.61-8.54c-.22,0-.38.07-.53.24-.22.26-.41.75-.55,1.46-.07.37-.12.75-.14,1.12-.19,2.64.82,4.67,2.44,4.96,1.27.23,2.65-.68,3.6-2.37.43-.77.74-1.62.91-2.53.02-.14.05-.28.07-.41,0-.01,0-.06.01-.11,0-.06.02-.12.02-.18v-.03c.05-.53-.01-.89-.17-1.06-.23-.25-.77-.24-1.39-.24-.48,0-1.01,0-1.57-.09-.55-.1-1.06-.28-1.51-.45-.54-.2-.91-.32-1.19-.32Z"></path><polygon points="90.79 59.06 90.26 58.57 90.89 57.91 91.39 58.42 90.79 59.06"></polygon><path d="m83.87,57.16l-.29-.19h-.37s0-.1,0-.1l.06-.1,1.18-1.81c.2-.29.43-.49.72-.6.62-.27,1.3-.13,1.95.03.12.04.19.06.27.06l3.98.64c.96.32,1.5,1.07,1.28,1.79l-.69-.21c.1-.32-.24-.7-.79-.89l-3.88-.62c-.11-.01-.23-.04-.38-.09-.5-.13-1.05-.24-1.47-.06-.16.07-.29.17-.4.34l-1.17,1.8Z"></path><path d="m85.87,65.64c-.17,0-.33-.01-.5-.04-1.95-.35-3.21-2.63-3.05-5.55.01-.39.06-.84.17-1.39.17-.88.4-1.46.73-1.82.67-.76,1.6-.42,2.49-.09.44.16.9.33,1.39.41.49.09.97.08,1.43.08.79,0,1.47-.02,1.91.45.3.31.42.79.39,1.46,0,.07,0,.15-.02.25l-.71-.12c0-.05,0-.09,0-.14.03-.49-.04-.8-.19-.96-.23-.24-.76-.23-1.39-.23-.47,0-1.01.01-1.56-.09-.55-.1-1.06-.28-1.51-.45-.96-.35-1.39-.46-1.71-.1-.24.26-.42.74-.56,1.47-.09.51-.14.92-.15,1.29-.14,2.55.87,4.53,2.45,4.81,1.39.24,2.94-.93,3.86-2.9l.65.3c-.98,2.09-2.56,3.35-4.14,3.35Z"></path><rect x="80.57" y="83.5" width=".31" height=".72" transform="translate(-34.81 98.06) rotate(-53.1)"></rect><path d="m73.47,83.4l-.63-.34.1-.19,1.05-2.06c.07-.13.15-.25.26-.37.1-.13.25-.25.41-.33.57-.35,1.25-.29,1.97-.2.09,0,.19.02.29.02l4.12.18c.84.16,1.43.64,1.53,1.26l-.71.12c-.05-.3-.41-.56-.93-.66l-4.03-.17c-.1.01-.23-.01-.36-.03-.59-.08-1.15-.13-1.52.11l-.05.02c-.06.03-.12.08-.17.14-.08.1-.14.17-.18.25l-1.14,2.25Z"></path><path d="m76.38,91.53c-.05,0-.11,0-.16,0-.85-.05-1.65-.45-2.29-1.18-1.09-1.24-1.65-3.3-1.49-5.52.09-1.19.36-1.92.85-2.28.59-.44,1.37-.25,2.19-.06.47.11.95.23,1.46.25.52.03,1.03-.04,1.48-.1.8-.11,1.55-.2,2.06.28.43.41.59,1.14.5,2.38h0c-.26,3.54-2.26,6.24-4.6,6.24Zm-2.18-8.53c-.19,0-.36.04-.49.13-.3.22-.49.81-.55,1.75-.15,2.03.34,3.89,1.31,4.99.51.58,1.13.91,1.79.94,1.97.11,3.77-2.39,4-5.56h0c.07-.96-.02-1.56-.27-1.8-.26-.24-.79-.17-1.47-.09-.48.06-1.03.13-1.61.1-.58-.03-1.11-.16-1.59-.27-.43-.1-.81-.19-1.11-.19Z"></path><path d="m73.54,82.93l-.58-.42,1.45-1.99c.07-.14.08-.27.01-.41-.12-.25-.46-.46-.89-.55l-4.02-.16c-.12,0-.24-.02-.36-.04-1.03-.13-1.58-.09-1.91.52l-1.14,2.25-.64-.33,1.15-2.26c.64-1.16,1.84-1,2.64-.89.1.01.2.03.3.03l4.11.17c.69.13,1.21.48,1.43.96.16.35.15.73-.05,1.08l-.02.04-1.47,2.01Z"></path><path d="m68.99,90.26c-.05,0-.11,0-.16,0-.85-.05-1.64-.46-2.29-1.19-1.09-1.24-1.65-3.3-1.49-5.52.09-1.2.36-1.92.85-2.28.6-.44,1.37-.25,2.19-.06.47.11.95.23,1.46.26.51.02,1-.04,1.47-.1.8-.1,1.5-.19,2,.22.34.28.53.75.57,1.43v.09s-.72,0-.72,0v-.06c-.03-.44-.14-.76-.31-.9-.27-.22-.82-.15-1.46-.06-.48.06-1.02.13-1.6.1-.58-.03-1.12-.16-1.59-.27-.71-.17-1.27-.3-1.6-.06-.3.22-.49.81-.56,1.75-.14,2.02.35,3.89,1.31,4.99.51.58,1.13.91,1.79.95,1.45.06,2.9-1.3,3.58-3.41l.68.22c-.77,2.4-2.39,3.91-4.15,3.91Z"></path><path d="m78.87,63.55c-.17,0-.33-.01-.5-.04-1.94-.35-3.19-2.63-3.05-5.54.01-.41.06-.84.17-1.4.17-.84.4-1.43.72-1.8.68-.8,1.61-.45,2.52-.12.43.16.88.33,1.37.42.49.08.97.08,1.44.07.79,0,1.47-.02,1.91.45.29.31.42.78.39,1.43v.2l-.09.1c-.23.25-.41.73-.55,1.46-.09.51-.14.92-.15,1.29v.08s-.03.07-.03.07c-.97,2.07-2.56,3.32-4.14,3.32Zm-1.59-8.55c-.22,0-.38.07-.52.24-.16.19-.39.59-.56,1.46-.1.52-.14.92-.15,1.3-.13,2.54.88,4.51,2.45,4.8,1.39.24,2.89-.87,3.83-2.81.02-.38.07-.8.16-1.32.15-.8.36-1.34.64-1.71.02-.42-.05-.71-.19-.86-.23-.24-.77-.23-1.39-.23-.48,0-1.02.01-1.58-.09-.55-.1-1.05-.29-1.49-.45-.55-.2-.92-.33-1.2-.33Z"></path><path d="m69.8,53.09l-.6-.39,1.26-1.94c.76-1.06,1.91-.76,2.67-.56l.31.07,3.94.64c.98.32,1.5,1.05,1.28,1.78l-.69-.21c.1-.32-.23-.68-.79-.87l-4.22-.7c-.98-.26-1.51-.28-1.91.27l-1.25,1.93Z"></path><path d="m71.9,61.44c-.17,0-.34-.01-.51-.04-.82-.14-1.55-.63-2.08-1.41-.92-1.33-1.21-3.39-.79-5.52.23-1.16.56-1.82,1.08-2.11.63-.35,1.35-.09,2.12.19.44.16.9.33,1.39.41.5.09,1,.09,1.45.08.78,0,1.46,0,1.9.45.29.3.41.76.39,1.4,0,.06,0,.11,0,.14l-.71-.03s.01.06.03.09l-.04-.09v-.1c.03-.45-.03-.76-.18-.92-.23-.24-.76-.23-1.38-.23-.48,0-1.02,0-1.58-.09-.56-.1-1.07-.28-1.52-.45-.66-.24-1.18-.43-1.52-.24-.31.18-.56.72-.73,1.62-.38,1.94-.13,3.8.68,4.97.43.62.99,1,1.62,1.11,1.39.25,2.9-.87,3.85-2.86l.65.31c-.99,2.06-2.56,3.3-4.12,3.3Zm4.24-6.52s0,.01,0,.02v-.02Z"></path><path d="m107.59,80c-.28,0-.56-.08-.8-.24-.14-.1-.26-.27-.42-.61l.65-.31c.13.27.18.33.19.34.19.13.48.14.68.02.08-.04.13-.09.18-.17.27-.46,1.4-5.44,1.23-7.35-.11-1.38-.42-2.99-.63-3.87-.34.58-.83,1.52-1.17,2.15-.43.82-.68,1.29-.79,1.44-.04.06-.1.35-.12.46-.03.21-.12.78-.12.78l-.71-.11s.09-.58.12-.81c.08-.41.14-.61.23-.74.08-.12.42-.76.74-1.37,1.55-2.92,1.61-2.93,1.86-2.97l.18-.03.14.13c.07.07.12.17.2.4.23.78.63,2.81.77,4.46.18,2.04-.99,7.22-1.35,7.81-.13.18-.26.3-.43.4-.2.12-.43.18-.66.18Z"></path><path d="m103.4,85.38c-.24,0-.47-.09-.65-.27-.21-.21-.5-.68-.77-2.53l.71-.1c.25,1.71.49,2.05.56,2.12.06.06.1.08.18.07.43-.05,1.19-.91,1.64-1.67.3-.5.77-1.98,1.25-3.97.01-.05.02-.08.02-.11.19-.9.4-2.96.55-4.47.09-.92.17-1.65.22-1.96.05-.31,0-.44-.01-.47,0,0-.01,0-.03.01-.06.04-.25.28-.39.46-.08.11-.18.22-.27.34-.28.34-.55.62-.8.83-.7.57-3.18,2.44-3.29,2.52l-.43-.57s2.58-1.95,3.27-2.51c.21-.18.45-.42.7-.72.09-.11.18-.23.26-.33.27-.34.45-.57.64-.66.27-.13.57-.11.78.06.2.15.41.47.29,1.16-.05.28-.12,1.04-.21,1.91-.16,1.61-.37,3.62-.57,4.56v.04s-.02.08-.04.11c-.29,1.19-.86,3.36-1.33,4.14-.11.19-1.15,1.88-2.17,2.01-.04,0-.08,0-.12,0Z"></path><path d="m98.07,88.46c-.73,0-1.49-.45-1.94-1.19-.19-.31-.38-.94-.61-1.9l-.02-.1.03-.1c.13-.39.22-.8.27-1.21.12-.95.52-3.94.65-4.9l-.18-.3.31-.19c.28-.17.67-.39,1.11-.64.34-.2.72-.41,1.1-.63.52-.29,1.06-.58,1.57-.86.6-.33,1.16-.63,1.58-.87.35-.19.78-.21,1.14-.04.35.16.6.47.69.84.02.08.02.16.02.21,0,.33-.2,1.54-.44,2.97-.05.29-.09.54-.12.72-.05.31-.21,1.15-.54,2.33-.25.9-.48,1.65-.74,2.35-.94,2.61-2.89,3.3-3.47,3.44-.14.03-.28.05-.42.05Zm-1.82-3.16c.26,1.08.42,1.47.5,1.6.37.6,1.02.94,1.56.81.49-.12,2.15-.71,2.96-2.99.25-.69.48-1.42.72-2.3.32-1.15.47-1.96.52-2.26.03-.18.07-.43.12-.72.16-.96.43-2.55.43-2.85,0-.01,0-.02,0-.04-.04-.17-.14-.3-.29-.37-.16-.07-.34-.07-.49.02-.41.23-.97.54-1.58.87-.5.28-1.04.57-1.56.85-.38.22-.75.43-1.09.63-.33.19-.62.36-.87.5,0,.03,0,.06,0,.09-.13.92-.53,3.94-.65,4.9-.05.43-.14.85-.27,1.25Zm.21-6.26h0s0,0,0,0Z"></path><path d="m91.95,90.52c-.61,0-1.18-.24-1.67-.7-1.07-1.02-1.54-2.85-1.51-4.12,0-.32,0-.69.01-1.08.03-3.3.07-4.17.2-4.42.24-.49.98-1.19,2.05-1.03.9.12,4.33-.56,4.73-.69.2-.06.43-.11.65-.13.27-.03.53.11.66.34l-.63.35s.02.02.03.02c-.17.01-.35.05-.49.09-.45.15-3.99.86-5.05.72-.76-.11-1.2.43-1.3.64-.09.3-.11,2.68-.13,4.1,0,.39,0,.76-.01,1.08-.02,1.15.41,2.75,1.29,3.58.39.37.83.54,1.3.5,1.35-.09,2.81-2.42,3.45-4.61l.69.2c-.58,1.99-2.15,4.99-4.09,5.13-.06,0-.12,0-.17,0Z"></path><path d="m84.39,92.02c-.29,0-.58-.04-.88-.12-.7-.2-1.68-.76-2.37-2.29-.72-1.59-.9-3.26-.93-4.38h0c-.03-1.12.37-2.24,1.22-3.42,1.73-2.39,4.11-3.06,5.63-2.91.98.1,1.72.53,2.01,1.18.8,1.76.27,5.04-.12,6.53-.71,2.68-1.98,4.32-2.95,4.96-.38.25-.96.44-1.61.44Zm-3.46-6.82c.03,1.06.2,2.63.87,4.11.46,1.02,1.1,1.66,1.91,1.89.8.23,1.57,0,1.9-.23.81-.54,1.99-2.06,2.65-4.55.43-1.63.83-4.59.16-6.05-.19-.41-.72-.69-1.43-.77-1.33-.13-3.42.47-4.97,2.61-.76,1.04-1.11,2.02-1.08,2.98h0Z"></path><path d="m107.52,67.26c-.12-.12-.27-.29-.43-.47-.65-.73-1.64-1.84-2.45-2.11l.23-.68c1,.33,2.06,1.53,2.76,2.32.16.18.3.33.41.45l-.52.5Z"></path><path d="m54.24,84.34l-.63-.35c.11-.2.38-.43.93-.89.58-.49,1.67-1.4,1.73-1.8.11-.82.58-5.81.58-5.86l.72.07c-.02.21-.47,5.05-.58,5.89-.09.63-.91,1.36-1.98,2.26-.31.26-.69.58-.76.68Z"></path><path d="m55.78,78.4l-.58-.42,1.58-2.16c.08-.16.09-.32.02-.47-.13-.29-.5-.51-.99-.61l-4.37-.18c-.13,0-.25-.02-.38-.04-1.14-.15-1.74-.1-2.12.58l-1.24,2.44-.64-.33,1.25-2.45c.68-1.24,1.98-1.07,2.84-.95.12.01.22.03.33.03l4.45.19c.74.14,1.3.52,1.53,1.02.17.37.15.77-.05,1.14l-.02.04-1.59,2.18Z"></path><path d="m50.88,86.34c-.06,0-.12,0-.17,0-.92-.05-1.77-.49-2.46-1.27-1.18-1.34-1.78-3.57-1.61-5.96.09-1.29.38-2.07.91-2.45.63-.46,1.47-.27,2.35-.06.51.12,1.04.25,1.59.28.56.03,1.12-.04,1.61-.11.9-.12,1.67-.22,2.21.29.46.44.63,1.22.53,2.55-.28,3.83-2.44,6.74-4.96,6.74Zm-2.37-9.26c-.22,0-.4.04-.55.15-.33.24-.54.89-.61,1.92-.16,2.21.37,4.24,1.43,5.44.56.64,1.24.99,1.96,1.03,2.16.11,4.12-2.61,4.38-6.07.08-1.05-.03-1.71-.31-1.98-.29-.28-.88-.2-1.62-.1-.52.07-1.12.14-1.74.11-.62-.03-1.21-.17-1.72-.29-.47-.11-.88-.21-1.21-.21Z"></path><path d="m65.08,82.41c-.3,1.36-1.77,2.1-4.43,1.55-2.98-.62-3.58-1.68-3.1-3.46.41-1.49,2.05-1.45,3.89-1.05,2.6.56,4.02,1.19,3.63,2.97Z"></path><path d="m76.86,54.9l-.58-.42,1.19-1.63c.18-.26.41-.46.69-.59.6-.27,1.27-.14,1.97.04l.31.07,3.93.64c.99.33,1.52,1.07,1.27,1.8l-.68-.23c.11-.32-.22-.68-.79-.88l-4.21-.7c-.59-.15-1.11-.26-1.49-.08-.16.08-.29.19-.4.36l-1.19,1.63Z"></path></g></g></g></svg>