<svg xmlns="http://www.w3.org/2000/svg" id="Layer_2" viewBox="0 0 150 150"><defs><style>.cls-1{fill:none;}</style></defs><g id="Layer_1-2"><g><rect class="cls-1" width="150" height="150"></rect><g><path d="m107.76,92.4l-.61-.32c.49-.91.83-3.18.5-3.78-1.31-.57-21.23-1.97-28.99-.48-2.23.29-5.19.29-7.4,0-3.3-.64-9.49-.84-17.01-.56-6.63.25-11.38.76-12,1.03-.34.6.01,2.87.5,3.78l-.61.32c-.53-1-1.05-3.68-.42-4.55.58-.8,11.68-1.24,12.15-1.26,3.66-.14,12.69-.38,17.5.55,2.13.28,5.03.28,7.18,0,4.8-.92,13.82-.69,17.48-.55.47.02,11.57.46,12.15,1.26.63.87.11,3.55-.42,4.55Z"></path><g><path d="m102.84,78.34l-.24-.24,29.4-29.4c.24-.24.23-.69-.03-1.04-.21-.28-.52-.47-.82-.49-.19-.01-.36.04-.48.16l-30.94,30.94-.24-.24,30.94-30.94c.19-.19.45-.28.74-.26.4.03.8.26,1.07.63.37.49.37,1.12,0,1.49l-29.4,29.4Z"></path><g><path d="m103.52,77.97c-.05,0-.1-.02-.14-.07l-1.69-2.27c-.06-.08-.04-.18.04-.24.08-.06.18-.04.24.04l1.69,2.27c.06.08.04.18-.04.24-.03.02-.07.03-.1.03Z"></path><path d="m104,77.49c-.05,0-.1-.02-.14-.07l-1.69-2.27c-.06-.08-.04-.18.04-.24.08-.06.18-.04.24.04l1.69,2.27c.06.08.04.18-.04.24-.03.02-.07.03-.1.03Z"></path><path d="m104.48,77.02c-.05,0-.1-.02-.14-.07l-1.69-2.27c-.06-.08-.04-.18.04-.24s.18-.04.24.04l1.69,2.27c.06.08.04.18-.04.24-.03.02-.07.03-.1.03Z"></path><path d="m104.96,76.54c-.05,0-.1-.02-.14-.07l-1.69-2.27c-.06-.08-.04-.18.04-.24.08-.06.18-.04.24.04l1.69,2.27c.06.08.04.18-.04.24-.03.02-.07.03-.1.03Z"></path><path d="m105.44,76.07c-.05,0-.1-.02-.14-.07l-1.69-2.27c-.06-.08-.04-.18.04-.24.08-.06.18-.04.24.04l1.69,2.27c.06.08.04.18-.04.24-.03.02-.07.03-.1.03Z"></path></g><g><path d="m105.91,75.58c-.05,0-.1-.02-.14-.07l-1.69-2.27c-.06-.08-.04-.18.04-.24.08-.06.18-.04.24.04l1.69,2.27c.06.08.04.18-.04.24-.03.02-.07.03-.1.03Z"></path><path d="m106.39,75.11c-.05,0-.1-.02-.14-.07l-1.69-2.27c-.06-.08-.04-.18.04-.24.08-.06.18-.04.24.04l1.69,2.27c.06.08.04.18-.04.24-.03.02-.07.03-.1.03Z"></path><path d="m106.97,74.69c-.06,0-.11-.03-.15-.07l-1.77-2.38c-.06-.08-.04-.19.04-.25s.19-.04.25.04l1.77,2.38c.06.08.04.19-.04.25-.03.02-.07.04-.11.04Z"></path><path d="m107.35,74.16c-.05,0-.1-.02-.14-.07l-1.69-2.27c-.06-.08-.04-.18.04-.24.08-.06.18-.04.24.04l1.69,2.27c.06.08.04.18-.04.24-.03.02-.07.03-.1.03Z"></path><path d="m107.83,73.68c-.05,0-.1-.02-.14-.07l-1.69-2.27c-.06-.08-.04-.18.04-.24.08-.06.18-.04.24.04l1.69,2.27c.06.08.04.18-.04.24-.03.02-.07.03-.1.03Z"></path></g><g><path d="m108.29,73.19c-.05,0-.1-.02-.14-.07l-1.69-2.27c-.06-.08-.04-.18.04-.24.08-.06.18-.04.24.04l1.69,2.27c.06.08.04.18-.04.24-.03.02-.07.03-.1.03Z"></path><path d="m108.78,72.72c-.05,0-.1-.02-.14-.07l-1.69-2.27c-.06-.08-.04-.18.04-.24.08-.06.18-.04.24.04l1.69,2.27c.06.08.04.18-.04.24-.03.02-.07.03-.1.03Z"></path><path d="m109.26,72.25c-.05,0-.1-.02-.14-.07l-1.69-2.27c-.06-.08-.04-.18.04-.24.08-.06.18-.04.24.04l1.69,2.27c.06.08.04.18-.04.24-.03.02-.07.03-.1.03Z"></path><path d="m109.74,71.77c-.05,0-.1-.02-.14-.07l-1.69-2.27c-.06-.08-.04-.18.04-.24.08-.06.18-.04.24.04l1.69,2.27c.06.08.04.18-.04.24-.03.02-.07.03-.1.03Z"></path><path d="m110.22,71.3c-.05,0-.1-.02-.14-.07l-1.69-2.27c-.06-.08-.04-.18.04-.24.08-.06.18-.04.24.04l1.69,2.27c.06.08.04.18-.04.24-.03.02-.07.03-.1.03Z"></path></g><g><path d="m110.68,70.81c-.05,0-.1-.02-.14-.07l-1.69-2.27c-.06-.08-.04-.18.04-.24.08-.06.18-.04.24.04l1.69,2.27c.06.08.04.18-.04.24-.03.02-.07.03-.1.03Z"></path><path d="m111.16,70.33c-.05,0-.1-.02-.14-.07l-1.69-2.27c-.06-.08-.04-.18.04-.24.08-.06.18-.04.24.04l1.69,2.27c.06.08.04.18-.04.24-.03.02-.07.03-.1.03Z"></path><path d="m111.64,69.86c-.05,0-.1-.02-.14-.07l-1.69-2.27c-.06-.08-.04-.18.04-.24.08-.06.18-.04.24.04l1.69,2.27c.06.08.04.18-.04.24-.03.02-.07.03-.1.03Z"></path><path d="m112.12,69.38c-.05,0-.1-.02-.14-.07l-1.69-2.27c-.06-.08-.04-.18.04-.24s.18-.04.24.04l1.69,2.27c.06.08.04.18-.04.24-.03.02-.07.03-.1.03Z"></path><path d="m112.6,68.91c-.05,0-.1-.02-.14-.07l-1.69-2.27c-.06-.08-.04-.18.04-.24.08-.06.18-.04.24.04l1.69,2.27c.06.08.04.18-.04.24-.03.02-.07.03-.1.03Z"></path></g><g><path d="m113.07,68.42c-.05,0-.1-.02-.14-.07l-1.69-2.27c-.06-.08-.04-.18.04-.24s.18-.04.24.04l1.69,2.27c.06.08.04.18-.04.24-.03.02-.07.03-.1.03Z"></path><path d="m113.55,67.95c-.05,0-.1-.02-.14-.07l-1.69-2.27c-.06-.08-.04-.18.04-.24.08-.06.18-.04.24.04l1.69,2.27c.06.08.04.18-.04.24-.03.02-.07.03-.1.03Z"></path><path d="m114.03,67.47c-.05,0-.1-.02-.14-.07l-1.69-2.27c-.06-.08-.04-.18.04-.24.08-.06.18-.04.24.04l1.69,2.27c.06.08.04.18-.04.24-.03.02-.07.03-.1.03Z"></path><path d="m114.51,67c-.05,0-.1-.02-.14-.07l-1.69-2.27c-.06-.08-.04-.18.04-.24.08-.06.18-.04.24.04l1.69,2.27c.06.08.04.18-.04.24-.03.02-.07.03-.1.03Z"></path><path d="m114.99,66.52c-.05,0-.1-.02-.14-.07l-1.69-2.27c-.06-.08-.04-.18.04-.24.08-.06.18-.04.24.04l1.69,2.27c.06.08.04.18-.04.24-.03.02-.07.03-.1.03Z"></path></g><g><path d="m115.45,66.03c-.05,0-.1-.02-.14-.07l-1.69-2.27c-.06-.08-.04-.18.04-.24.08-.06.18-.04.24.04l1.69,2.27c.06.08.04.18-.04.24-.03.02-.07.03-.1.03Z"></path><path d="m115.93,65.56c-.05,0-.1-.02-.14-.07l-1.69-2.27c-.06-.08-.04-.18.04-.24.08-.06.18-.04.24.04l1.69,2.27c.06.08.04.18-.04.24-.03.02-.07.03-.1.03Z"></path><path d="m116.42,65.09c-.05,0-.1-.02-.14-.07l-1.69-2.27c-.06-.08-.04-.18.04-.24s.18-.04.24.04l1.69,2.27c.06.08.04.18-.04.24-.03.02-.07.03-.1.03Z"></path><path d="m116.9,64.61c-.05,0-.1-.02-.14-.07l-1.69-2.27c-.06-.08-.04-.18.04-.24.08-.06.18-.04.24.04l1.69,2.27c.06.08.04.18-.04.24-.03.02-.07.03-.1.03Z"></path><path d="m117.38,64.14c-.05,0-.1-.02-.14-.07l-1.69-2.27c-.06-.08-.04-.18.04-.24s.18-.04.24.04l1.69,2.27c.06.08.04.18-.04.24-.03.02-.07.03-.1.03Z"></path></g><g><path d="m117.84,63.65c-.05,0-.1-.02-.14-.07l-1.69-2.27c-.06-.08-.04-.18.04-.24.08-.06.18-.04.24.04l1.69,2.27c.06.08.04.18-.04.24-.03.02-.07.03-.1.03Z"></path><path d="m118.32,63.17c-.05,0-.1-.02-.14-.07l-1.69-2.27c-.06-.08-.04-.18.04-.24.08-.06.18-.04.24.04l1.69,2.27c.06.08.04.18-.04.24-.03.02-.07.03-.1.03Z"></path><path d="m118.8,62.7c-.05,0-.1-.02-.14-.07l-1.69-2.27c-.06-.08-.04-.18.04-.24s.18-.04.24.04l1.69,2.27c.06.08.04.18-.04.24-.03.02-.07.03-.1.03Z"></path><path d="m119.28,62.23c-.05,0-.1-.02-.14-.07l-1.69-2.27c-.06-.08-.04-.18.04-.24.08-.06.18-.04.24.04l1.69,2.27c.06.08.04.18-.04.24-.03.02-.07.03-.1.03Z"></path><path d="m119.76,61.75c-.05,0-.1-.02-.14-.07l-1.69-2.27c-.06-.08-.04-.18.04-.24.08-.06.18-.04.24.04l1.69,2.27c.06.08.04.18-.04.24-.03.02-.07.03-.1.03Z"></path></g><g><path d="m120.23,61.26c-.05,0-.1-.02-.14-.07l-1.69-2.27c-.06-.08-.04-.18.04-.24.08-.06.18-.04.24.04l1.69,2.27c.06.08.04.18-.04.24-.03.02-.07.03-.1.03Z"></path><path d="m120.71,60.79c-.05,0-.1-.02-.14-.07l-1.69-2.27c-.06-.08-.04-.18.04-.24.08-.06.18-.04.24.04l1.69,2.27c.06.08.04.18-.04.24-.03.02-.07.03-.1.03Z"></path><path d="m121.19,60.31c-.05,0-.1-.02-.14-.07l-1.69-2.27c-.06-.08-.04-.18.04-.24.08-.06.18-.04.24.04l1.69,2.27c.06.08.04.18-.04.24-.03.02-.07.03-.1.03Z"></path><path d="m121.67,59.84c-.05,0-.1-.02-.14-.07l-1.69-2.27c-.06-.08-.04-.18.04-.24.08-.06.18-.04.24.04l1.69,2.27c.06.08.04.18-.04.24-.03.02-.07.03-.1.03Z"></path><path d="m122.15,59.36c-.05,0-.1-.02-.14-.07l-1.69-2.27c-.06-.08-.04-.18.04-.24.08-.06.18-.04.24.04l1.69,2.27c.06.08.04.18-.04.24-.03.02-.07.03-.1.03Z"></path></g><g><path d="m122.61,58.88c-.05,0-.1-.02-.14-.07l-1.69-2.27c-.06-.08-.04-.18.04-.24.08-.06.18-.04.24.04l1.69,2.27c.06.08.04.18-.04.24-.03.02-.07.03-.1.03Z"></path><path d="m123.09,58.4c-.05,0-.1-.02-.14-.07l-1.69-2.27c-.06-.08-.04-.18.04-.24.08-.06.18-.04.24.04l1.69,2.27c.06.08.04.18-.04.24-.03.02-.07.03-.1.03Z"></path><path d="m123.58,57.93c-.05,0-.1-.02-.14-.07l-1.69-2.27c-.06-.08-.04-.18.04-.24.08-.06.18-.04.24.04l1.69,2.27c.06.08.04.18-.04.24-.03.02-.07.03-.1.03Z"></path><path d="m124.06,57.45c-.05,0-.1-.02-.14-.07l-1.69-2.27c-.06-.08-.04-.18.04-.24s.18-.04.24.04l1.69,2.27c.06.08.04.18-.04.24-.03.02-.07.03-.1.03Z"></path><path d="m124.53,56.98c-.05,0-.1-.02-.14-.07l-1.69-2.27c-.06-.08-.04-.18.04-.24.08-.06.18-.04.24.04l1.69,2.27c.06.08.04.18-.04.24-.03.02-.07.03-.1.03Z"></path></g><g><path d="m125,56.49c-.05,0-.1-.02-.14-.07l-1.69-2.27c-.06-.08-.04-.18.04-.24s.18-.04.24.04l1.69,2.27c.06.08.04.18-.04.24-.03.02-.07.03-.1.03Z"></path><path d="m125.48,56.02c-.05,0-.1-.02-.14-.07l-1.69-2.27c-.06-.08-.04-.18.04-.24.08-.06.18-.04.24.04l1.69,2.27c.06.08.04.18-.04.24-.03.02-.07.03-.1.03Z"></path><path d="m125.96,55.54c-.05,0-.1-.02-.14-.07l-1.69-2.27c-.06-.08-.04-.18.04-.24.08-.06.18-.04.24.04l1.69,2.27c.06.08.04.18-.04.24-.03.02-.07.03-.1.03Z"></path><path d="m126.44,55.07c-.05,0-.1-.02-.14-.07l-1.69-2.27c-.06-.08-.04-.18.04-.24.08-.06.18-.04.24.04l1.69,2.27c.06.08.04.18-.04.24-.03.02-.07.03-.1.03Z"></path><path d="m126.92,54.59c-.05,0-.1-.02-.14-.07l-1.69-2.27c-.06-.08-.04-.18.04-.24s.18-.04.24.04l1.69,2.27c.06.08.04.18-.04.24-.03.02-.07.03-.1.03Z"></path></g><g><path d="m127.38,54.1c-.05,0-.1-.02-.14-.07l-1.69-2.27c-.06-.08-.04-.18.04-.24.08-.06.18-.04.24.04l1.69,2.27c.06.08.04.18-.04.24-.03.02-.07.03-.1.03Z"></path><path d="m127.87,53.63c-.05,0-.1-.02-.14-.07l-1.69-2.27c-.06-.08-.04-.18.04-.24.08-.06.18-.04.24.04l1.69,2.27c.06.08.04.18-.04.24-.03.02-.07.03-.1.03Z"></path><path d="m128.35,53.16c-.05,0-.1-.02-.14-.07l-1.69-2.27c-.06-.08-.04-.18.04-.24s.18-.04.24.04l1.69,2.27c.06.08.04.18-.04.24-.03.02-.07.03-.1.03Z"></path><path d="m128.83,52.68c-.05,0-.1-.02-.14-.07l-1.69-2.27c-.06-.08-.04-.18.04-.24.08-.06.18-.04.24.04l1.69,2.27c.06.08.04.18-.04.24-.03.02-.07.03-.1.03Z"></path><path d="m129.31,52.2c-.05,0-.1-.02-.14-.07l-1.69-2.27c-.06-.08-.04-.18.04-.24s.18-.04.24.04l1.69,2.27c.06.08.04.18-.04.24-.03.02-.07.03-.1.03Z"></path></g><g><path d="m129.77,51.72c-.05,0-.1-.02-.14-.07l-1.69-2.27c-.06-.08-.04-.18.04-.24.08-.06.18-.04.24.04l1.69,2.27c.06.08.04.18-.04.24-.03.02-.07.03-.1.03Z"></path><path d="m130.25,51.24c-.05,0-.1-.02-.14-.07l-1.69-2.27c-.06-.08-.04-.18.04-.24.08-.06.18-.04.24.04l1.69,2.27c.06.08.04.18-.04.24-.03.02-.07.03-.1.03Z"></path><path d="m130.73,50.77c-.05,0-.1-.02-.14-.07l-1.69-2.27c-.06-.08-.04-.18.04-.24s.18-.04.24.04l1.69,2.27c.06.08.04.18-.04.24-.03.02-.07.03-.1.03Z"></path><path d="m131.21,50.29c-.05,0-.1-.02-.14-.07l-1.69-2.27c-.06-.08-.04-.18.04-.24.08-.06.18-.04.24.04l1.69,2.27c.06.08.04.18-.04.24-.03.02-.07.03-.1.03Z"></path><path d="m131.69,49.82c-.05,0-.1-.02-.14-.07l-1.69-2.27c-.06-.08-.04-.18.04-.24s.18-.04.24.04l1.69,2.27c.06.08.04.18-.04.24-.03.02-.07.03-.1.03Z"></path></g></g><g><path d="m88.02,78.02h-.34v-14.88c0-.26.12-.52.34-.71.3-.26.75-.38,1.2-.31.61.09,1.05.53,1.05,1.06v14.83h-.34v-14.83c0-.35-.33-.65-.76-.72-.35-.05-.7.04-.92.23-.15.13-.23.28-.23.45v14.88Z"></path><g><path d="m90.36,77.06s-.02,0-.03,0l-2.79-.41c-.09-.01-.16-.1-.15-.2.01-.09.1-.16.2-.15l2.79.41c.09.01.16.1.15.2-.01.09-.09.15-.17.15Z"></path><path d="m90.37,76.38s-.02,0-.03,0l-2.79-.41c-.09-.01-.16-.1-.15-.2.01-.09.1-.16.2-.15l2.79.41c.09.01.16.1.15.2-.01.09-.09.15-.17.15Z"></path><path d="m90.37,75.71s-.02,0-.03,0l-2.79-.41c-.09-.01-.16-.1-.15-.2.01-.09.1-.16.2-.15l2.79.41c.09.01.16.1.15.2-.01.09-.09.15-.17.15Z"></path><path d="m90.38,75.03s-.02,0-.03,0l-2.79-.41c-.09-.01-.16-.1-.15-.2.01-.09.1-.16.2-.15l2.79.41c.09.01.16.1.15.2-.01.09-.09.15-.17.15Z"></path><path d="m90.38,74.36s-.02,0-.03,0l-2.79-.41c-.09-.01-.16-.1-.15-.2.01-.09.1-.16.2-.15l2.79.41c.09.01.16.1.15.2-.01.09-.09.15-.17.15Z"></path></g><g><path d="m90.36,73.69s-.02,0-.03,0l-2.79-.41c-.09-.01-.16-.1-.15-.2.01-.09.1-.16.2-.15l2.79.41c.09.01.16.1.15.2-.01.09-.09.15-.17.15Z"></path><path d="m90.37,73.01s-.02,0-.03,0l-2.79-.41c-.09-.01-.16-.1-.15-.2.01-.09.1-.16.2-.15l2.79.41c.09.01.16.1.15.2-.01.09-.09.15-.17.15Z"></path><path d="m90.37,72.33s-.02,0-.03,0l-2.79-.41c-.09-.01-.16-.1-.15-.2.01-.09.1-.16.2-.15l2.79.41c.09.01.16.1.15.2-.01.09-.09.15-.17.15Z"></path><path d="m90.38,71.66s-.02,0-.03,0l-2.79-.41c-.09-.01-.16-.1-.15-.2.01-.09.1-.16.2-.15l2.79.41c.09.01.16.1.15.2-.01.09-.09.15-.17.15Z"></path><path d="m90.38,70.98s-.02,0-.03,0l-2.79-.41c-.09-.01-.16-.1-.15-.2.01-.09.1-.16.2-.15l2.79.41c.09.01.16.1.15.2-.01.09-.09.15-.17.15Z"></path></g><g><path d="m90.36,70.31s-.02,0-.03,0l-2.79-.41c-.09-.01-.16-.1-.15-.2.01-.09.1-.16.2-.15l2.79.41c.09.01.16.1.15.2-.01.09-.09.15-.17.15Z"></path><path d="m90.37,69.64s-.02,0-.03,0l-2.79-.41c-.09-.01-.16-.1-.15-.2.01-.09.1-.16.2-.15l2.79.41c.09.01.16.1.15.2-.01.09-.09.15-.17.15Z"></path><path d="m90.37,68.96s-.02,0-.03,0l-2.79-.41c-.09-.01-.16-.1-.15-.2.01-.09.1-.16.2-.15l2.79.41c.09.01.16.1.15.2-.01.09-.09.15-.17.15Z"></path><path d="m90.38,68.28s-.02,0-.03,0l-2.79-.41c-.09-.01-.16-.1-.15-.2.01-.09.1-.16.2-.15l2.79.41c.09.01.16.1.15.2-.01.09-.09.15-.17.15Z"></path><path d="m90.38,67.61s-.02,0-.03,0l-2.79-.41c-.09-.01-.16-.1-.15-.2.01-.09.1-.16.2-.15l2.79.41c.09.01.16.1.15.2-.01.09-.09.15-.17.15Z"></path></g><g><path d="m90.36,66.94s-.02,0-.03,0l-2.79-.41c-.09-.01-.16-.1-.15-.2.01-.09.1-.16.2-.15l2.79.41c.09.01.16.1.15.2-.01.09-.09.15-.17.15Z"></path><path d="m90.37,66.26s-.02,0-.03,0l-2.79-.41c-.09-.01-.16-.1-.15-.2.01-.09.1-.16.2-.15l2.79.41c.09.01.16.1.15.2-.01.09-.09.15-.17.15Z"></path><path d="m90.37,65.58s-.02,0-.03,0l-2.79-.41c-.09-.01-.16-.1-.15-.2.01-.09.1-.16.2-.15l2.79.41c.09.01.16.1.15.2-.01.09-.09.15-.17.15Z"></path><path d="m90.38,64.91s-.02,0-.03,0l-2.79-.41c-.09-.01-.16-.1-.15-.2.01-.09.1-.16.2-.15l2.79.41c.09.01.16.1.15.2-.01.09-.09.15-.17.15Z"></path><path d="m90.38,64.23s-.02,0-.03,0l-2.79-.41c-.09-.01-.16-.1-.15-.2.01-.09.1-.16.2-.15l2.79.41c.09.01.16.1.15.2-.01.09-.09.15-.17.15Z"></path></g></g><g><path d="m78.91,78.16h-.34v-11.35c0-.26.12-.52.34-.71.3-.26.75-.38,1.2-.31.61.09,1.05.53,1.05,1.06v11.3h-.34v-11.3c0-.35-.33-.65-.76-.72-.35-.05-.7.04-.92.23-.15.13-.23.28-.23.45v11.35Z"></path><g><path d="m81.26,77.2s-.02,0-.03,0l-2.79-.41c-.09-.01-.16-.1-.15-.2.01-.09.1-.16.2-.15l2.79.41c.09.01.16.1.15.2-.01.09-.09.15-.17.15Z"></path><path d="m81.26,76.53s-.02,0-.03,0l-2.79-.41c-.09-.01-.16-.1-.15-.2.01-.09.1-.16.2-.15l2.79.41c.09.01.16.1.15.2-.01.09-.09.15-.17.15Z"></path><path d="m81.27,75.85s-.02,0-.03,0l-2.79-.41c-.09-.01-.16-.1-.15-.2.01-.09.1-.16.2-.15l2.79.41c.09.01.16.1.15.2-.01.09-.09.15-.17.15Z"></path><path d="m81.27,75.18s-.02,0-.03,0l-2.79-.41c-.09-.01-.16-.1-.15-.2.01-.09.1-.16.2-.15l2.79.41c.09.01.16.1.15.2-.01.09-.09.15-.17.15Z"></path><path d="m81.27,74.5s-.02,0-.03,0l-2.79-.41c-.09-.01-.16-.1-.15-.2.01-.09.1-.16.2-.15l2.79.41c.09.01.16.1.15.2-.01.09-.09.15-.17.15Z"></path></g><g><path d="m81.26,73.91s-.02,0-.03,0l-2.79-.41c-.09-.01-.16-.1-.15-.2.01-.09.1-.16.2-.15l2.79.41c.09.01.16.1.15.2-.01.09-.09.15-.17.15Z"></path><path d="m81.26,73.23s-.02,0-.03,0l-2.79-.41c-.09-.01-.16-.1-.15-.2.01-.09.1-.16.2-.15l2.79.41c.09.01.16.1.15.2-.01.09-.09.15-.17.15Z"></path><path d="m81.27,72.56s-.02,0-.03,0l-2.79-.41c-.09-.01-.16-.1-.15-.2.01-.09.1-.16.2-.15l2.79.41c.09.01.16.1.15.2-.01.09-.09.15-.17.15Z"></path><path d="m81.27,71.88s-.02,0-.03,0l-2.79-.41c-.09-.01-.16-.1-.15-.2.01-.09.1-.16.2-.15l2.79.41c.09.01.16.1.15.2-.01.09-.09.15-.17.15Z"></path><path d="m81.27,71.21s-.02,0-.03,0l-2.79-.41c-.09-.01-.16-.1-.15-.2.01-.09.1-.16.2-.15l2.79.41c.09.01.16.1.15.2-.01.09-.09.15-.17.15Z"></path></g><g><path d="m81.26,70.61s-.02,0-.03,0l-2.79-.41c-.09-.01-.16-.1-.15-.2.01-.09.1-.16.2-.15l2.79.41c.09.01.16.1.15.2-.01.09-.09.15-.17.15Z"></path><path d="m81.26,69.94s-.02,0-.03,0l-2.79-.41c-.09-.01-.16-.1-.15-.2.01-.09.1-.16.2-.15l2.79.41c.09.01.16.1.15.2-.01.09-.09.15-.17.15Z"></path><path d="m81.27,69.26s-.02,0-.03,0l-2.79-.41c-.09-.01-.16-.1-.15-.2.01-.09.1-.16.2-.15l2.79.41c.09.01.16.1.15.2-.01.09-.09.15-.17.15Z"></path><path d="m81.27,68.59s-.02,0-.03,0l-2.79-.41c-.09-.01-.16-.1-.15-.2.01-.09.1-.16.2-.15l2.79.41c.09.01.16.1.15.2-.01.09-.09.15-.17.15Z"></path><path d="m81.27,67.91s-.02,0-.03,0l-2.79-.41c-.09-.01-.16-.1-.15-.2.01-.09.1-.16.2-.15l2.79.41c.09.01.16.1.15.2-.01.09-.09.15-.17.15Z"></path></g></g><path d="m104.01,70.01c-.57,0-1.15-.13-1.7-.39l-4.34-2.12c-2.57-1.25-4.54-3.41-5.55-6.08l-3.72-9.78c-.15-.4-.21-.84-.16-1.26l.63-5.53c.06-.53.35-1.01.78-1.31.44-.3.98-.41,1.5-.28l27.08,6.63c1.05.26,1.86,1.03,2.16,2.07s.04,2.12-.7,2.91l-13.18,13.94c-.75.79-1.76,1.21-2.8,1.21Zm-13.01-26.12c-.24,0-.47.07-.67.21-.27.19-.45.49-.49.82l-.63,5.53c-.04.32,0,.64.12.94l3.72,9.78c.95,2.5,2.8,4.53,5.21,5.71l4.34,2.12c1.25.61,2.74.34,3.69-.67l13.18-13.94c.57-.6.77-1.44.54-2.24s-.86-1.39-1.67-1.59l-27.08-6.63c-.09-.02-.18-.03-.28-.03Z"></path><path d="m80.77,81.64h-1.8c-.4,0-.71-.26-.71-.6v-1.02h.69v.93s.02,0,.03,0h1.8s.02,0,.03,0v-.93h.69v1.02c0,.34-.31.6-.71.6Z"></path><path d="m81.85,80.24h-3.95c-.2,0-.38-.1-.49-.27-.1-.17-.11-.38-.02-.56l.52-1.01c.16-.3.46-.49.81-.49h2.32c.34,0,.65.19.81.49l.52,1.01c.09.18.08.39-.02.56-.1.17-.29.27-.49.27Zm-3.76-.69h3.56l-.43-.84c-.04-.07-.11-.12-.19-.12h-2.32c-.08,0-.16.05-.19.12l-.43.84Z"></path><path d="m101.86,81.64h-1.8c-.4,0-.71-.26-.71-.6v-1.02h.69v.93s.02,0,.03,0h1.8s.02,0,.03,0v-.93h.69v1.02c0,.34-.31.6-.71.6Z"></path><path d="m102.88,80.22h-3.83c-.35,0-.63-.28-.63-.63v-1.28c0-.35.28-.63.63-.63h3.83c.35,0,.63.28.63.63v1.28c0,.35-.28.63-.63.63Zm-3.77-.69h3.71v-1.16h-3.71v1.16Z"></path><path d="m89.84,81.64h-1.8c-.4,0-.71-.26-.71-.6v-1.02h.69v.93s.02,0,.03,0h1.8s.02,0,.03,0v-.93h.69v1.02c0,.34-.31.6-.71.6Z"></path><path d="m90.92,80.24h-3.95c-.2,0-.38-.1-.49-.27-.1-.17-.11-.38-.02-.56l.52-1.01c.16-.3.46-.49.81-.49h2.32c.34,0,.65.19.81.49l.52,1.01c.09.18.08.39-.02.56-.1.17-.29.27-.49.27Zm-3.76-.69h3.56l-.43-.84c-.04-.07-.11-.12-.19-.12h-2.32c-.08,0-.16.05-.19.12l-.43.84Z"></path><g><path d="m47.16,78.34l-29.4-29.4c-.37-.37-.37-1,0-1.49.27-.36.67-.6,1.07-.63.29-.02.56.07.74.26l30.94,30.94-.24.24-30.94-30.94c-.12-.12-.28-.17-.48-.16-.3.02-.61.2-.82.49-.26.35-.27.8-.03,1.04l29.4,29.4-.24.24Z"></path><g><path d="m46.48,77.97s-.07-.01-.1-.03c-.08-.06-.09-.16-.04-.24l1.69-2.27c.06-.08.16-.09.24-.04.08.06.09.16.04.24l-1.69,2.27s-.09.07-.14.07Z"></path><path d="m46,77.49s-.07-.01-.1-.03c-.08-.06-.09-.16-.04-.24l1.69-2.27c.06-.08.16-.09.24-.04.08.06.09.16.04.24l-1.69,2.27s-.09.07-.14.07Z"></path><path d="m45.52,77.02s-.07-.01-.1-.03c-.08-.06-.09-.16-.04-.24l1.69-2.27c.06-.08.16-.09.24-.04.08.06.09.16.04.24l-1.69,2.27s-.09.07-.14.07Z"></path><path d="m45.04,76.54s-.07-.01-.1-.03c-.08-.06-.09-.16-.04-.24l1.69-2.27c.06-.08.16-.09.24-.04.08.06.09.16.04.24l-1.69,2.27s-.09.07-.14.07Z"></path><path d="m44.56,76.07s-.07-.01-.1-.03c-.08-.06-.09-.16-.04-.24l1.69-2.27c.06-.08.16-.09.24-.04.08.06.09.16.04.24l-1.69,2.27s-.09.07-.14.07Z"></path></g><g><path d="m44.09,75.58s-.07-.01-.1-.03c-.08-.06-.09-.16-.04-.24l1.69-2.27c.06-.08.16-.09.24-.04.08.06.09.16.04.24l-1.69,2.27s-.09.07-.14.07Z"></path><path d="m43.61,75.11s-.07-.01-.1-.03c-.08-.06-.09-.16-.04-.24l1.69-2.27c.06-.08.16-.09.24-.04.08.06.09.16.04.24l-1.69,2.27s-.09.07-.14.07Z"></path><path d="m43.13,74.63s-.07-.01-.1-.03c-.08-.06-.09-.16-.04-.24l1.69-2.27c.06-.08.16-.09.24-.04.08.06.09.16.04.24l-1.69,2.27s-.09.07-.14.07Z"></path><path d="m42.65,74.16s-.07-.01-.1-.03c-.08-.06-.09-.16-.04-.24l1.69-2.27c.06-.08.16-.09.24-.04.08.06.09.16.04.24l-1.69,2.27s-.09.07-.14.07Z"></path><path d="m42.17,73.68s-.07-.01-.1-.03c-.08-.06-.09-.16-.04-.24l1.69-2.27c.06-.08.16-.09.24-.04.08.06.09.16.04.24l-1.69,2.27s-.09.07-.14.07Z"></path></g><g><path d="m41.71,73.19s-.07-.01-.1-.03c-.08-.06-.09-.16-.04-.24l1.69-2.27c.06-.08.16-.09.24-.04.08.06.09.16.04.24l-1.69,2.27s-.09.07-.14.07Z"></path><path d="m41.22,72.72s-.07-.01-.1-.03c-.08-.06-.09-.16-.04-.24l1.69-2.27c.06-.08.16-.09.24-.04.08.06.09.16.04.24l-1.69,2.27s-.09.07-.14.07Z"></path><path d="m40.74,72.25s-.07-.01-.1-.03c-.08-.06-.09-.16-.04-.24l1.69-2.27c.06-.08.16-.09.24-.04.08.06.09.16.04.24l-1.69,2.27s-.09.07-.14.07Z"></path><path d="m40.26,71.77s-.07-.01-.1-.03c-.08-.06-.09-.16-.04-.24l1.69-2.27c.06-.08.16-.09.24-.04.08.06.09.16.04.24l-1.69,2.27s-.09.07-.14.07Z"></path><path d="m39.78,71.3s-.07-.01-.1-.03c-.08-.06-.09-.16-.04-.24l1.69-2.27c.06-.08.16-.09.24-.04.08.06.09.16.04.24l-1.69,2.27s-.09.07-.14.07Z"></path></g><g><path d="m39.32,70.81s-.07-.01-.1-.03c-.08-.06-.09-.16-.04-.24l1.69-2.27c.06-.08.16-.09.24-.04.08.06.09.16.04.24l-1.69,2.27s-.09.07-.14.07Z"></path><path d="m38.84,70.33s-.07-.01-.1-.03c-.08-.06-.09-.16-.04-.24l1.69-2.27c.06-.08.16-.09.24-.04.08.06.09.16.04.24l-1.69,2.27s-.09.07-.14.07Z"></path><path d="m38.36,69.86s-.07-.01-.1-.03c-.08-.06-.09-.16-.04-.24l1.69-2.27c.06-.08.16-.09.24-.04.08.06.09.16.04.24l-1.69,2.27s-.09.07-.14.07Z"></path><path d="m37.88,69.38s-.07-.01-.1-.03c-.08-.06-.09-.16-.04-.24l1.69-2.27c.06-.08.16-.09.24-.04.08.06.09.16.04.24l-1.69,2.27s-.09.07-.14.07Z"></path><path d="m37.4,68.91s-.07-.01-.1-.03c-.08-.06-.09-.16-.04-.24l1.69-2.27c.06-.08.16-.09.24-.04.08.06.09.16.04.24l-1.69,2.27s-.09.07-.14.07Z"></path></g><g><path d="m36.93,68.42s-.07-.01-.1-.03c-.08-.06-.09-.16-.04-.24l1.69-2.27c.06-.08.16-.09.24-.04.08.06.09.16.04.24l-1.69,2.27s-.09.07-.14.07Z"></path><path d="m36.45,67.95s-.07-.01-.1-.03c-.08-.06-.09-.16-.04-.24l1.69-2.27c.06-.08.16-.09.24-.04.08.06.09.16.04.24l-1.69,2.27s-.09.07-.14.07Z"></path><path d="m35.97,67.47s-.07-.01-.1-.03c-.08-.06-.09-.16-.04-.24l1.69-2.27c.06-.08.16-.09.24-.04.08.06.09.16.04.24l-1.69,2.27s-.09.07-.14.07Z"></path><path d="m35.49,67s-.07-.01-.1-.03c-.08-.06-.09-.16-.04-.24l1.69-2.27c.06-.08.16-.09.24-.04.08.06.09.16.04.24l-1.69,2.27s-.09.07-.14.07Z"></path><path d="m35.01,66.52s-.07-.01-.1-.03c-.08-.06-.09-.16-.04-.24l1.69-2.27c.06-.08.16-.09.24-.04.08.06.09.16.04.24l-1.69,2.27s-.09.07-.14.07Z"></path></g><g><path d="m34.55,66.03s-.07-.01-.1-.03c-.08-.06-.09-.16-.04-.24l1.69-2.27c.06-.08.16-.09.24-.04.08.06.09.16.04.24l-1.69,2.27s-.09.07-.14.07Z"></path><path d="m34.07,65.56s-.07-.01-.1-.03c-.08-.06-.09-.16-.04-.24l1.69-2.27c.06-.08.16-.09.24-.04.08.06.09.16.04.24l-1.69,2.27s-.09.07-.14.07Z"></path><path d="m33.58,65.09s-.07-.01-.1-.03c-.08-.06-.09-.16-.04-.24l1.69-2.27c.06-.08.16-.09.24-.04.08.06.09.16.04.24l-1.69,2.27s-.09.07-.14.07Z"></path><path d="m33.1,64.61s-.07-.01-.1-.03c-.08-.06-.09-.16-.04-.24l1.69-2.27c.06-.08.16-.09.24-.04.08.06.09.16.04.24l-1.69,2.27s-.09.07-.14.07Z"></path><path d="m32.62,64.14s-.07-.01-.1-.03c-.08-.06-.09-.16-.04-.24l1.69-2.27c.06-.08.16-.09.24-.04.08.06.09.16.04.24l-1.69,2.27s-.09.07-.14.07Z"></path></g><g><path d="m32.16,63.65s-.07-.01-.1-.03c-.08-.06-.09-.16-.04-.24l1.69-2.27c.06-.08.16-.09.24-.04.08.06.09.16.04.24l-1.69,2.27s-.09.07-.14.07Z"></path><path d="m31.68,63.17s-.07-.01-.1-.03c-.08-.06-.09-.16-.04-.24l1.69-2.27c.06-.08.16-.09.24-.04.08.06.09.16.04.24l-1.69,2.27s-.09.07-.14.07Z"></path><path d="m31.2,62.7s-.07-.01-.1-.03c-.08-.06-.09-.16-.04-.24l1.69-2.27c.06-.08.16-.09.24-.04.08.06.09.16.04.24l-1.69,2.27s-.09.07-.14.07Z"></path><path d="m30.72,62.23s-.07-.01-.1-.03c-.08-.06-.09-.16-.04-.24l1.69-2.27c.06-.08.16-.09.24-.04.08.06.09.16.04.24l-1.69,2.27s-.09.07-.14.07Z"></path><path d="m30.24,61.75s-.07-.01-.1-.03c-.08-.06-.09-.16-.04-.24l1.69-2.27c.06-.08.16-.09.24-.04.08.06.09.16.04.24l-1.69,2.27s-.09.07-.14.07Z"></path></g><g><path d="m29.77,61.26s-.07-.01-.1-.03c-.08-.06-.09-.16-.04-.24l1.69-2.27c.06-.08.16-.09.24-.04.08.06.09.16.04.24l-1.69,2.27s-.09.07-.14.07Z"></path><path d="m29.29,60.79s-.07-.01-.1-.03c-.08-.06-.09-.16-.04-.24l1.69-2.27c.06-.08.16-.09.24-.04.08.06.09.16.04.24l-1.69,2.27s-.09.07-.14.07Z"></path><path d="m28.81,60.31s-.07-.01-.1-.03c-.08-.06-.09-.16-.04-.24l1.69-2.27c.06-.08.16-.09.24-.04.08.06.09.16.04.24l-1.69,2.27s-.09.07-.14.07Z"></path><path d="m28.33,59.84s-.07-.01-.1-.03c-.08-.06-.09-.16-.04-.24l1.69-2.27c.06-.08.16-.09.24-.04.08.06.09.16.04.24l-1.69,2.27s-.09.07-.14.07Z"></path><path d="m27.85,59.36s-.07-.01-.1-.03c-.08-.06-.09-.16-.04-.24l1.69-2.27c.06-.08.16-.09.24-.04.08.06.09.16.04.24l-1.69,2.27s-.09.07-.14.07Z"></path></g><g><path d="m27.39,58.88s-.07-.01-.1-.03c-.08-.06-.09-.16-.04-.24l1.69-2.27c.06-.08.16-.09.24-.04.08.06.09.16.04.24l-1.69,2.27s-.09.07-.14.07Z"></path><path d="m26.91,58.4s-.07-.01-.1-.03c-.08-.06-.09-.16-.04-.24l1.69-2.27c.06-.08.16-.09.24-.04.08.06.09.16.04.24l-1.69,2.27s-.09.07-.14.07Z"></path><path d="m26.42,57.93s-.07-.01-.1-.03c-.08-.06-.09-.16-.04-.24l1.69-2.27c.06-.08.16-.09.24-.04.08.06.09.16.04.24l-1.69,2.27s-.09.07-.14.07Z"></path><path d="m25.95,57.45s-.07-.01-.1-.03c-.08-.06-.09-.16-.04-.24l1.69-2.27c.06-.08.16-.09.24-.04.08.06.09.16.04.24l-1.69,2.27s-.09.07-.14.07Z"></path><path d="m25.47,56.98s-.07-.01-.1-.03c-.08-.06-.09-.16-.04-.24l1.69-2.27c.06-.08.16-.09.24-.04.08.06.09.16.04.24l-1.69,2.27s-.09.07-.14.07Z"></path></g><g><path d="m25,56.49s-.07-.01-.1-.03c-.08-.06-.09-.16-.04-.24l1.69-2.27c.06-.08.16-.09.24-.04.08.06.09.16.04.24l-1.69,2.27s-.09.07-.14.07Z"></path><path d="m24.52,56.02s-.07-.01-.1-.03c-.08-.06-.09-.16-.04-.24l1.69-2.27c.06-.08.16-.09.24-.04.08.06.09.16.04.24l-1.69,2.27s-.09.07-.14.07Z"></path><path d="m24.04,55.54s-.07-.01-.1-.03c-.08-.06-.09-.16-.04-.24l1.69-2.27c.06-.08.16-.09.24-.04.08.06.09.16.04.24l-1.69,2.27s-.09.07-.14.07Z"></path><path d="m23.56,55.07s-.07-.01-.1-.03c-.08-.06-.09-.16-.04-.24l1.69-2.27c.06-.08.16-.09.24-.04.08.06.09.16.04.24l-1.69,2.27s-.09.07-.14.07Z"></path><path d="m23.08,54.59s-.07-.01-.1-.03c-.08-.06-.09-.16-.04-.24l1.69-2.27c.06-.08.16-.09.24-.04.08.06.09.16.04.24l-1.69,2.27s-.09.07-.14.07Z"></path></g><g><path d="m22.62,54.1s-.07-.01-.1-.03c-.08-.06-.09-.16-.04-.24l1.69-2.27c.06-.08.16-.09.24-.04.08.06.09.16.04.24l-1.69,2.27s-.09.07-.14.07Z"></path><path d="m22.13,53.63s-.07-.01-.1-.03c-.08-.06-.09-.16-.04-.24l1.69-2.27c.06-.08.16-.09.24-.04.08.06.09.16.04.24l-1.69,2.27s-.09.07-.14.07Z"></path><path d="m21.65,53.16s-.07-.01-.1-.03c-.08-.06-.09-.16-.04-.24l1.69-2.27c.06-.08.16-.09.24-.04.08.06.09.16.04.24l-1.69,2.27s-.09.07-.14.07Z"></path><path d="m21.17,52.68s-.07-.01-.1-.03c-.08-.06-.09-.16-.04-.24l1.69-2.27c.06-.08.16-.09.24-.04.08.06.09.16.04.24l-1.69,2.27s-.09.07-.14.07Z"></path><path d="m20.69,52.2s-.07-.01-.1-.03c-.08-.06-.09-.16-.04-.24l1.69-2.27c.06-.08.16-.09.24-.04.08.06.09.16.04.24l-1.69,2.27s-.09.07-.14.07Z"></path></g><g><path d="m20.23,51.72s-.07-.01-.1-.03c-.08-.06-.09-.16-.04-.24l1.69-2.27c.06-.08.16-.09.24-.04.08.06.09.16.04.24l-1.69,2.27s-.09.07-.14.07Z"></path><path d="m19.75,51.24s-.07-.01-.1-.03c-.08-.06-.09-.16-.04-.24l1.69-2.27c.06-.08.16-.09.24-.04.08.06.09.16.04.24l-1.69,2.27s-.09.07-.14.07Z"></path><path d="m19.27,50.77s-.07-.01-.1-.03c-.08-.06-.09-.16-.04-.24l1.69-2.27c.06-.08.16-.09.24-.04.08.06.09.16.04.24l-1.69,2.27s-.09.07-.14.07Z"></path><path d="m18.79,50.29s-.07-.01-.1-.03c-.08-.06-.09-.16-.04-.24l1.69-2.27c.06-.08.16-.09.24-.04.08.06.09.16.04.24l-1.69,2.27s-.09.07-.14.07Z"></path><path d="m18.31,49.82s-.07-.01-.1-.03c-.08-.06-.09-.16-.04-.24l1.69-2.27c.06-.08.16-.09.24-.04.08.06.09.16.04.24l-1.69,2.27s-.09.07-.14.07Z"></path></g></g><g><path d="m62.32,78.02h-.34v-14.88c0-.16-.08-.32-.23-.45-.23-.2-.57-.28-.92-.23-.43.06-.76.37-.76.72v14.83h-.34v-14.83c0-.52.44-.97,1.05-1.06.45-.07.9.05,1.2.31.22.19.34.44.34.71v14.88Z"></path><g><path d="m59.64,77.06c-.08,0-.16-.06-.17-.15-.01-.09.05-.18.15-.2l2.79-.41c.09-.01.18.05.2.15.01.09-.05.18-.15.2l-2.79.41s-.02,0-.03,0Z"></path><path d="m59.63,76.38c-.08,0-.16-.06-.17-.15-.01-.09.05-.18.15-.2l2.79-.41c.09-.01.18.05.2.15.01.09-.05.18-.15.2l-2.79.41s-.02,0-.03,0Z"></path><path d="m59.63,75.71c-.08,0-.16-.06-.17-.15-.01-.09.05-.18.15-.2l2.79-.41c.09-.01.18.05.2.15.01.09-.05.18-.15.2l-2.79.41s-.02,0-.03,0Z"></path><path d="m59.62,75.03c-.08,0-.16-.06-.17-.15-.01-.09.05-.18.15-.2l2.79-.41c.1-.01.18.05.2.15.01.09-.05.18-.15.2l-2.79.41s-.02,0-.03,0Z"></path><path d="m59.62,74.36c-.08,0-.16-.06-.17-.15-.01-.09.05-.18.15-.2l2.79-.41c.09-.01.18.05.2.15.01.09-.05.18-.15.2l-2.79.41s-.02,0-.03,0Z"></path></g><g><path d="m59.64,73.69c-.08,0-.16-.06-.17-.15-.01-.09.05-.18.15-.2l2.79-.41c.09-.01.18.05.2.15.01.09-.05.18-.15.2l-2.79.41s-.02,0-.03,0Z"></path><path d="m59.63,73.01c-.08,0-.16-.06-.17-.15-.01-.09.05-.18.15-.2l2.79-.41c.09-.01.18.05.2.15.01.09-.05.18-.15.2l-2.79.41s-.02,0-.03,0Z"></path><path d="m59.63,72.33c-.08,0-.16-.06-.17-.15-.01-.09.05-.18.15-.2l2.79-.41c.09-.01.18.05.2.15.01.09-.05.18-.15.2l-2.79.41s-.02,0-.03,0Z"></path><path d="m59.62,71.66c-.08,0-.16-.06-.17-.15-.01-.09.05-.18.15-.2l2.79-.41c.1-.01.18.05.2.15.01.09-.05.18-.15.2l-2.79.41s-.02,0-.03,0Z"></path><path d="m59.62,70.98c-.08,0-.16-.06-.17-.15-.01-.09.05-.18.15-.2l2.79-.41c.09-.01.18.05.2.15.01.09-.05.18-.15.2l-2.79.41s-.02,0-.03,0Z"></path></g><g><path d="m59.64,70.31c-.08,0-.16-.06-.17-.15-.01-.09.05-.18.15-.2l2.79-.41c.09-.01.18.05.2.15.01.09-.05.18-.15.2l-2.79.41s-.02,0-.03,0Z"></path><path d="m59.63,69.64c-.08,0-.16-.06-.17-.15-.01-.09.05-.18.15-.2l2.79-.41c.09-.01.18.05.2.15.01.09-.05.18-.15.2l-2.79.41s-.02,0-.03,0Z"></path><path d="m59.63,68.96c-.08,0-.16-.06-.17-.15-.01-.09.05-.18.15-.2l2.79-.41c.09-.01.18.05.2.15.01.09-.05.18-.15.2l-2.79.41s-.02,0-.03,0Z"></path><path d="m59.62,68.28c-.08,0-.16-.06-.17-.15-.01-.09.05-.18.15-.2l2.79-.41c.1-.01.18.05.2.15.01.09-.05.18-.15.2l-2.79.41s-.02,0-.03,0Z"></path><path d="m59.62,67.61c-.08,0-.16-.06-.17-.15-.01-.09.05-.18.15-.2l2.79-.41c.09-.01.18.05.2.15.01.09-.05.18-.15.2l-2.79.41s-.02,0-.03,0Z"></path></g><g><path d="m59.64,66.94c-.08,0-.16-.06-.17-.15-.01-.09.05-.18.15-.2l2.79-.41c.09-.01.18.05.2.15.01.09-.05.18-.15.2l-2.79.41s-.02,0-.03,0Z"></path><path d="m59.63,66.26c-.08,0-.16-.06-.17-.15-.01-.09.05-.18.15-.2l2.79-.41c.09-.01.18.05.2.15.01.09-.05.18-.15.2l-2.79.41s-.02,0-.03,0Z"></path><path d="m59.63,65.58c-.08,0-.16-.06-.17-.15-.01-.09.05-.18.15-.2l2.79-.41c.09-.01.18.05.2.15.01.09-.05.18-.15.2l-2.79.41s-.02,0-.03,0Z"></path><path d="m59.62,64.91c-.08,0-.16-.06-.17-.15-.01-.09.05-.18.15-.2l2.79-.41c.1-.01.18.05.2.15.01.09-.05.18-.15.2l-2.79.41s-.02,0-.03,0Z"></path><path d="m59.62,64.23c-.08,0-.16-.06-.17-.15-.01-.09.05-.18.15-.2l2.79-.41c.09-.01.18.05.2.15.01.09-.05.18-.15.2l-2.79.41s-.02,0-.03,0Z"></path></g></g><g><path d="m71.43,78.16h-.34v-11.35c0-.16-.08-.32-.23-.45-.23-.2-.57-.29-.92-.23-.43.06-.76.37-.76.72v11.3h-.34v-11.3c0-.52.44-.97,1.05-1.06.45-.06.9.05,1.2.31.22.19.34.44.34.71v11.35Z"></path><g><path d="m68.74,77.2c-.08,0-.16-.06-.17-.15-.01-.09.05-.18.15-.2l2.79-.41c.09-.01.18.05.2.15.01.09-.05.18-.15.2l-2.79.41s-.02,0-.03,0Z"></path><path d="m68.74,76.53c-.08,0-.16-.06-.17-.15-.01-.09.05-.18.15-.2l2.79-.41c.09-.01.18.05.2.15.01.09-.05.18-.15.2l-2.79.41s-.02,0-.03,0Z"></path><path d="m68.73,75.85c-.08,0-.16-.06-.17-.15-.01-.09.05-.18.15-.2l2.79-.41c.09-.01.18.05.2.15.01.09-.05.18-.15.2l-2.79.41s-.02,0-.03,0Z"></path><path d="m68.73,75.18c-.08,0-.16-.06-.17-.15-.01-.09.05-.18.15-.2l2.79-.41c.09-.01.18.05.2.15.01.09-.05.18-.15.2l-2.79.41s-.02,0-.03,0Z"></path><path d="m68.73,74.5c-.08,0-.16-.06-.17-.15-.01-.09.05-.18.15-.2l2.79-.41c.09-.01.18.05.2.15.01.09-.05.18-.15.2l-2.79.41s-.02,0-.03,0Z"></path></g><g><path d="m68.74,73.91c-.08,0-.16-.06-.17-.15-.01-.09.05-.18.15-.2l2.79-.41c.09-.01.18.05.2.15.01.09-.05.18-.15.2l-2.79.41s-.02,0-.03,0Z"></path><path d="m68.74,73.23c-.08,0-.16-.06-.17-.15-.01-.09.05-.18.15-.2l2.79-.41c.09-.01.18.05.2.15.01.09-.05.18-.15.2l-2.79.41s-.02,0-.03,0Z"></path><path d="m68.73,72.56c-.08,0-.16-.06-.17-.15-.01-.09.05-.18.15-.2l2.79-.41c.09-.01.18.05.2.15.01.09-.05.18-.15.2l-2.79.41s-.02,0-.03,0Z"></path><path d="m68.73,71.88c-.08,0-.16-.06-.17-.15-.01-.09.05-.18.15-.2l2.79-.41c.09-.01.18.05.2.15.01.09-.05.18-.15.2l-2.79.41s-.02,0-.03,0Z"></path><path d="m68.73,71.21c-.08,0-.16-.06-.17-.15-.01-.09.05-.18.15-.2l2.79-.41c.09-.01.18.05.2.15.01.09-.05.18-.15.2l-2.79.41s-.02,0-.03,0Z"></path></g><g><path d="m68.74,70.61c-.08,0-.16-.06-.17-.15-.01-.09.05-.18.15-.2l2.79-.41c.09-.01.18.05.2.15.01.09-.05.18-.15.2l-2.79.41s-.02,0-.03,0Z"></path><path d="m68.74,69.94c-.08,0-.16-.06-.17-.15-.01-.09.05-.18.15-.2l2.79-.41c.09-.01.18.05.2.15.01.09-.05.18-.15.2l-2.79.41s-.02,0-.03,0Z"></path><path d="m68.73,69.26c-.08,0-.16-.06-.17-.15-.01-.09.05-.18.15-.2l2.79-.41c.09-.01.18.05.2.15.01.09-.05.18-.15.2l-2.79.41s-.02,0-.03,0Z"></path><path d="m68.73,68.59c-.08,0-.16-.06-.17-.15-.01-.09.05-.18.15-.2l2.79-.41c.09-.01.18.05.2.15.01.09-.05.18-.15.2l-2.79.41s-.02,0-.03,0Z"></path><path d="m68.73,67.91c-.08,0-.16-.06-.17-.15-.01-.09.05-.18.15-.2l2.79-.41c.09-.01.18.05.2.15.01.09-.05.18-.15.2l-2.79.41s-.02,0-.03,0Z"></path></g></g><path d="m86.57,101.64c-.26,0-.54-.01-.81-.02h-.09c-2.47-.1-3.35-1.43-3.24-4.93.06-2.06.56-3.53,1.48-4.38.65-.6,1.5-.88,2.52-.83,2.06.1,3.42,2.76,3.31,6.45-.05,1.51-.35,2.48-.97,3.06-.58.54-1.35.65-2.19.65Zm-.38-9.47c-.74,0-1.35.22-1.82.65-.78.72-1.2,2.03-1.26,3.89h0c-.1,3.47.79,4.14,2.58,4.21h.09c1.05.04,1.95.08,2.51-.44.47-.44.71-1.28.75-2.57.1-3.29-.99-5.65-2.65-5.74-.07,0-.13,0-.2,0Z"></path><path d="m79.84,102c-.16,0-.33,0-.5,0-.35,0-.74,0-1.08,0-1.04.02-1.94.03-2.57-.59-.6-.59-.87-1.71-.87-3.6,0-6.31,2.79-6.99,3.99-6.99,2.62,0,4.32,2.74,4.32,6.99,0,1.78-.29,2.9-.93,3.53-.61.6-1.41.68-2.34.68Zm-1.05-10.5c-2.09,0-3.3,2.3-3.3,6.3,0,1.67.21,2.66.67,3.11.43.42,1.12.41,2.08.4.35,0,.74,0,1.1,0,1.03.01,1.85.03,2.35-.47.49-.48.72-1.47.72-3.04,0-3.83-1.42-6.3-3.63-6.3Z"></path><path d="m92.41,101.91c-.69,0-1.35-.33-2.02-.73-.83-.49-1.6-1.2-1.63-1.23l.47-.5s.74.69,1.51,1.14c1.21.71,2.09,1.07,3.27-.35.7-.85.64-3.4-.16-6.83-.19-.81-.85-1.46-1.42-1.76-.37-.19-.73-.24-.96-.14-.63.26-1.38,1.45-1.82,2.16-.12.19-.23.36-.31.48l-.57-.39c.08-.12.18-.27.29-.45.52-.83,1.31-2.07,2.14-2.42.43-.18.98-.12,1.54.17.87.44,1.57,1.31,1.78,2.21.51,2.17,1.18,6.02.03,7.43-.75.91-1.45,1.23-2.13,1.23Z"></path><path d="m97.91,101.33c-.28,0-.57-.06-.87-.17-1.27-.49-2.33-1.35-2.38-1.39l.44-.53s1.02.83,2.19,1.28c.45.17.87.16,1.21-.02.37-.2.65-.62.76-1.15.24-1.18-.24-4.28-.57-5.5-.29-1.07-1.19-1.91-1.96-1.84-.65.06-1.43.78-1.95,1.25-.15.13-.27.25-.38.34l-.44-.53c.1-.08.22-.19.35-.31.62-.56,1.47-1.34,2.35-1.43,1.11-.11,2.32.94,2.7,2.34.35,1.31.84,4.51.58,5.81-.15.74-.54,1.31-1.1,1.62-.28.16-.59.23-.92.23Z"></path><path d="m102.3,101.23c-.87,0-2.57-1.19-2.95-1.57l.49-.49c.37.37,1.9,1.37,2.47,1.37.25,0,.76-.23,1.73-1.35.23-.38.49-4.02.03-5.63-.47-1.64-2.08-1.35-2.39-1.28-.52.12-1.2.92-1.69,1.51-.17.2-.32.38-.46.53l-.5-.47c.13-.15.28-.32.44-.51.62-.73,1.32-1.56,2.06-1.73,1.17-.27,2.72.02,3.21,1.76.44,1.54.33,5.7-.17,6.26-.65.75-1.49,1.59-2.26,1.59Z"></path><path d="m106.63,100.09c-.79,0-2.19-.54-2.5-1.28l.64-.27c.16.38,1.2.86,1.87.86.45,0,.94-.5,1.33-1.34.31-.68.34-3.07.12-3.9-.26-.99-1.04-1.94-1.3-1.91-.48.07-1.4.64-2.12,1.46l-.52-.46c.76-.87,1.83-1.57,2.54-1.68.92-.14,1.82,1.47,2.07,2.42.26.98.21,3.54-.16,4.37-.3.65-.94,1.75-1.95,1.75Z"></path><path d="m63.31,101.64c-.84,0-1.61-.11-2.19-.65-.62-.58-.93-1.55-.97-3.06-.11-3.69,1.25-6.34,3.31-6.45,1.02-.05,1.87.23,2.52.83.92.85,1.42,2.32,1.48,4.38.1,3.49-.77,4.83-3.24,4.92h-.09c-.28.01-.55.02-.81.02Zm.38-9.47c-.07,0-.13,0-.2,0-1.66.08-2.75,2.44-2.65,5.74.04,1.3.29,2.14.75,2.57.56.52,1.46.48,2.51.44h.09c1.79-.07,2.69-.74,2.58-4.22-.06-1.86-.48-3.17-1.26-3.89-.47-.43-1.08-.65-1.82-.65Z"></path><path d="m70.04,102c-.93,0-1.74-.08-2.34-.68-.63-.62-.93-1.74-.93-3.53,0-4.25,1.69-6.99,4.32-6.99,1.2,0,3.99.68,3.99,6.99,0,1.9-.27,3.01-.87,3.6-.63.62-1.53.61-2.57.59-.35,0-.73,0-1.08,0-.17,0-.34,0-.5,0Zm1.05-.7c.19,0,.37,0,.55,0,.96.02,1.65.02,2.08-.4.46-.45.67-1.44.67-3.11,0-4-1.2-6.3-3.3-6.3-2.2,0-3.63,2.47-3.63,6.3,0,1.56.24,2.56.72,3.04.51.5,1.32.49,2.35.47.18,0,.36,0,.55,0Z"></path><path d="m57.47,101.91c-.68,0-1.38-.32-2.13-1.23-1.16-1.41-.48-5.26.03-7.43.21-.9.91-1.77,1.78-2.21.56-.29,1.11-.35,1.54-.17.83.35,1.62,1.6,2.14,2.42.11.18.21.34.29.46l-.57.39c-.08-.12-.19-.29-.31-.48-.45-.71-1.19-1.89-1.82-2.16-.24-.1-.59-.05-.96.14-.57.29-1.23.95-1.42,1.76-.8,3.43-.86,5.99-.16,6.83,1.17,1.42,2.05,1.06,3.27.35.76-.45,1.5-1.14,1.51-1.14l.47.5s-.8.75-1.63,1.23c-.67.39-1.33.73-2.02.73Z"></path><path d="m51.97,101.33c-.33,0-.64-.08-.92-.23-.56-.31-.95-.88-1.1-1.62-.26-1.3.22-4.5.58-5.81.38-1.4,1.59-2.46,2.7-2.34.88.09,1.73.86,2.35,1.43.14.12.25.23.35.31l-.44.53c-.11-.09-.24-.2-.38-.34-.52-.47-1.3-1.19-1.95-1.25-.77-.08-1.67.76-1.96,1.84-.33,1.22-.81,4.32-.57,5.5.11.53.38.95.76,1.15.34.19.76.2,1.21.02,1.17-.45,2.18-1.27,2.19-1.28l.44.53s-1.1.9-2.38,1.39c-.3.11-.59.17-.87.17Z"></path><path d="m47.58,101.23c-.77,0-1.6-.85-2.25-1.58-.5-.58-.62-4.73-.18-6.27.5-1.74,2.04-2.04,3.21-1.76.74.17,1.44,1,2.06,1.73.16.19.31.36.44.51l-.5.47c-.14-.15-.3-.34-.46-.53-.5-.59-1.18-1.39-1.69-1.51-.32-.07-1.92-.36-2.39,1.28-.46,1.61-.2,5.25.04,5.64.97,1.11,1.47,1.34,1.72,1.34.56,0,2.09-1,2.47-1.37l.49.49c-.38.38-2.08,1.57-2.95,1.57Z"></path><path d="m43.25,100.09c-1.01,0-1.66-1.09-1.95-1.75-.38-.83-.42-3.39-.16-4.37.25-.94,1.15-2.56,2.07-2.42.71.11,1.77.82,2.54,1.68l-.52.46c-.72-.82-1.65-1.38-2.12-1.46-.26-.03-1.04.92-1.3,1.91-.22.83-.18,3.23.12,3.9.38.84.88,1.34,1.33,1.34.66,0,1.71-.48,1.87-.86l.64.27c-.31.74-1.71,1.28-2.5,1.28Z"></path><path d="m106.65,78.53c-.28,0-.57,0-.86-.02-3.94-.19-30.51,0-30.78,0-.27,0-26.85-.19-30.79,0-3.96.19-6.39-.86-8.65-3.74-2.06-2.62-11.29-12.43-11.39-12.53l.5-.47c.38.4,9.35,9.93,11.43,12.57,2.11,2.68,4.37,3.66,8.08,3.48,3.96-.19,30.55,0,30.82,0,.26,0,26.86-.19,30.81,0,3.71.18,5.97-.8,8.08-3.48,2.08-2.64,11.05-12.17,11.43-12.57l.5.47c-.09.1-9.33,9.91-11.39,12.53-2.1,2.67-4.33,3.77-7.79,3.77Z"></path><path d="m103.6,87.27h-.69v-1.41c0-.1-.08-.18-.18-.18h-4.17c-.1,0-.18.08-.18.18v1.07h-.69v-1.07c0-.48.39-.87.87-.87h4.17c.48,0,.87.39.87.87v1.41Z"></path><path d="m91.8,86.54h-.69v-1.07c0-.1-.08-.18-.18-.18h-4.17c-.1,0-.18.08-.18.18v1.07h-.69v-1.07c0-.48.39-.87.87-.87h4.17c.48,0,.87.39.87.87v1.07Z"></path><path d="m46.92,87.27h-.69v-1.41c0-.48.39-.87.87-.87h4.17c.48,0,.87.39.87.87v1.07h-.69v-1.07c0-.1-.08-.18-.18-.18h-4.17c-.1,0-.18.08-.18.18v1.41Z"></path><path d="m63.93,86.54h-.69v-1.07c0-.1-.08-.18-.18-.18h-4.17c-.1,0-.18.08-.18.18v1.07h-.69v-1.07c0-.48.39-.87.87-.87h4.17c.48,0,.87.39.87.87v1.07Z"></path><path d="m77.59,87.45h-.69v-1.57c0-.48.39-.87.87-.87h4.17c.48,0,.87.39.87.87v1.07h-.69v-1.07c0-.1-.08-.18-.18-.18h-4.17c-.1,0-.18.08-.18.18v1.57Z"></path><path d="m73,87.45h-.69v-1.57c0-.1-.08-.18-.18-.18h-4.17c-.1,0-.18.08-.18.18v1.07h-.69v-1.07c0-.48.39-.87.87-.87h4.17c.48,0,.87.39.87.87v1.57Z"></path><path d="m45.99,70.01c-1.03,0-2.05-.42-2.8-1.21l-13.18-13.94c-.74-.78-1-1.87-.7-2.91s1.11-1.81,2.16-2.07l27.08-6.63c.52-.13,1.06-.02,1.5.28.44.3.72.78.78,1.31l.63,5.53c.05.42,0,.86-.16,1.26l-3.72,9.78c-1.02,2.67-2.99,4.83-5.55,6.08l-4.34,2.12c-.54.27-1.12.39-1.7.39Zm13.01-26.12c-.09,0-.19.01-.28.03l-27.08,6.63c-.81.2-1.43.79-1.67,1.59s-.03,1.64.54,2.24l13.18,13.94c.96,1.01,2.44,1.28,3.69.67l4.34-2.12c2.41-1.18,4.26-3.2,5.21-5.71l3.72-9.78c.11-.3.15-.62.12-.94l-.63-5.53c-.04-.33-.22-.63-.49-.82-.2-.14-.43-.21-.67-.21Z"></path><path d="m81.87,64.63c-2.22,0-4.26-1.67-5.21-4.27-.09-.24-.27-.44-.5-.53-.18-.07-.79-.15-1.17-.15s-.99.08-1.17.15c-.23.09-.41.28-.5.53-.95,2.59-2.99,4.27-5.21,4.27-3.18,0-5.76-3.35-5.76-7.47,0-2.31.8-4.46,2.21-5.89.05-.05.08-.1.09-.16l2.45-9.11.67.18-2.45,9.11c-.05.17-.14.33-.27.46-1.28,1.3-2.01,3.27-2.01,5.4,0,3.74,2.28,6.79,5.07,6.79,1.92,0,3.71-1.5,4.56-3.81.16-.43.48-.77.89-.93.31-.12,1.04-.2,1.42-.2s1.11.08,1.42.2c.41.16.73.5.89.93.85,2.32,2.64,3.81,4.56,3.81,2.8,0,5.07-3.04,5.07-6.79,0-2.13-.73-4.1-2.01-5.4-.13-.13-.22-.29-.27-.46l-2.45-9.11.67-.18,2.45,9.11c.02.06.05.11.09.16,1.4,1.43,2.21,3.57,2.21,5.88,0,4.12-2.59,7.47-5.76,7.47Z"></path><path d="m71.03,81.64h-1.8c-.4,0-.71-.26-.71-.6v-1.02h.69v.93s.02,0,.03,0h1.8s.02,0,.03,0v-.93h.69v1.02c0,.34-.31.6-.71.6Z"></path><path d="m72.11,80.24h-3.95c-.2,0-.38-.1-.49-.27-.1-.17-.11-.38-.02-.56l.52-1.01c.16-.3.46-.49.81-.49h2.32c.34,0,.65.19.81.49l.52,1.01c.09.18.08.39-.02.56-.1.17-.29.27-.49.27Zm-3.76-.69h3.56l-.43-.84c-.04-.07-.11-.12-.19-.12h-2.32c-.08,0-.16.05-.19.12l-.43.84Z"></path><path d="m49.94,81.64h-1.8c-.4,0-.71-.26-.71-.6v-1.02h.69v.93s.02,0,.03,0h1.8s.02,0,.03,0v-.93h.69v1.02c0,.34-.31.6-.71.6Z"></path><path d="m50.95,80.22h-3.83c-.35,0-.63-.28-.63-.63v-1.28c0-.35.28-.63.63-.63h3.83c.35,0,.63.28.63.63v1.28c0,.35-.28.63-.63.63Zm-3.77-.69h3.71v-1.16h-3.71v1.16Z"></path><path d="m61.95,81.64h-1.8c-.4,0-.71-.26-.71-.6v-1.02h.69v.93s.02,0,.03,0h1.8s.02,0,.03,0v-.93h.69v1.02c0,.34-.31.6-.71.6Z"></path><path d="m63.03,80.24h-3.95c-.2,0-.38-.1-.49-.27-.1-.17-.11-.38-.02-.56l.52-1.01c.16-.3.46-.49.81-.49h2.32c.34,0,.65.19.81.49l.52,1.01c.09.18.08.39-.02.56-.1.17-.29.27-.49.27Zm-3.76-.69h3.56l-.43-.84c-.04-.07-.11-.12-.19-.12h-2.32c-.08,0-.16.05-.19.12l-.43.84Z"></path></g></g></g></svg>